<?xml version="1.0" encoding="utf-8"?>
<!-- Generator: Adobe Illustrator 19.0.0, SVG Export Plug-In . SVG Version: 6.00 Build 0)  -->
<svg version="1.1" id="Layer_1" xmlns="http://www.w3.org/2000/svg" xmlns:xlink="http://www.w3.org/1999/xlink" x="0px" y="0px"
	 viewBox="-71 71.8 566.9 566.9" style="enable-background:new -71 71.8 566.9 566.9;" xml:space="preserve">
<style type="text/css">
	.st0{fill:url(#XMLID_27_);}
	.st1{fill:url(#XMLID_28_);}
	.st2{fill:url(#XMLID_33_);}
	.st3{fill:url(#XMLID_34_);}
	.st4{fill:url(#XMLID_36_);}
	.st5{fill:url(#XMLID_37_);}
	.st6{opacity:0.47;}
	.st7{opacity:0.47;fill:#FFFFFF;enable-background:new    ;}
	.st8{opacity:0.74;fill:#FFFFFF;enable-background:new    ;}
	.st9{opacity:0.24;fill:#FFFFFF;enable-background:new    ;}
	.st10{opacity:0.75;fill:#FFFFFF;enable-background:new    ;}
	.st11{opacity:0.58;fill:url(#XMLID_38_);enable-background:new    ;}
	.st12{opacity:0.32;fill:url(#XMLID_39_);enable-background:new    ;}
	.st13{opacity:0.56;fill:url(#XMLID_40_);enable-background:new    ;}
	.st14{opacity:0.3;fill:#FCFCFC;enable-background:new    ;}
	.st15{opacity:0.24;fill:#FCFCFC;enable-background:new    ;}
	.st16{opacity:0.57;fill:#FFFFFF;enable-background:new    ;}
	.st17{opacity:0.4;fill:#FFFFFF;enable-background:new    ;}
	.st18{opacity:0.31;fill:#FFFFFF;enable-background:new    ;}
	.st19{opacity:0.1;fill:#FFFFFF;enable-background:new    ;}
	.st20{opacity:0.22;fill:#FFFFFF;enable-background:new    ;}
	.st21{opacity:0.26;fill:#FFFFFF;enable-background:new    ;}
	.st22{fill:url(#XMLID_41_);}
	.st23{fill:url(#XMLID_42_);}
	.st24{fill:url(#XMLID_43_);}
	.st25{opacity:0.19;fill:#FFFFFF;enable-background:new    ;}
	.st26{fill:url(#XMLID_44_);}
	.st27{fill:url(#XMLID_45_);}
	.st28{fill:url(#XMLID_46_);}
	.st29{fill:url(#XMLID_47_);}
	.st30{fill:none;}
	.st31{fill:url(#XMLID_48_);}
	.st32{fill:url(#XMLID_49_);}
	.st33{clip-path:url(#SVGID_2_);}
	.st34{fill:url(#SVGID_3_);}
	.st35{fill:#FFFFFF;}
</style>
<linearGradient id="XMLID_27_" gradientUnits="userSpaceOnUse" x1="122.9499" y1="160.0596" x2="212.3965" y2="287.0417" gradientTransform="matrix(1 0 0 -1 0 712.1799)">
	<stop  offset="0" style="stop-color:#FF9D00"/>
	<stop  offset="1" style="stop-color:#FFC200"/>
</linearGradient>
<path id="XMLID_269_" class="st0" d="M139.2,348.8l-110,169.9c46,53.4,112.2,85.3,182.4,87.9l47-75.2L139.2,348.8z"/>
<linearGradient id="XMLID_28_" gradientUnits="userSpaceOnUse" x1="293.1491" y1="328.3041" x2="165.3201" y2="236.8186" gradientTransform="matrix(1 0 0 -1 0 712.1799)">
	<stop  offset="0" style="stop-color:#6DED79"/>
	<stop  offset="1" style="stop-color:#77FF00"/>
</linearGradient>
<path id="XMLID_255_" class="st1" d="M261.3,440.5c2.2-1.7,4.5-3.4,6.5-5.2c6.6-5.8,11.5-15.1,7.4-21c-3-4.4-9.3-5.1-16.5-5.8
	c-6.2-0.7-12.7-1.3-18.4-4.5c-2.5-1.4-4.6-3.2-6.5-4.7c-1-0.8-2-1.6-3-2.4c-12.9-9.4-31-6.8-48.5-4.3c-0.7,0.1-1.4,0.2-2.1,0.3
	l64,97.9c-2.3-10-4.7-21.2-0.1-31.7C247.8,450.8,255,445.3,261.3,440.5z"/>
<linearGradient id="XMLID_33_" gradientUnits="userSpaceOnUse" x1="384.2477" y1="441.673" x2="465.7074" y2="120.8473" gradientTransform="matrix(1 0 0 -1 0 712.1799)">
	<stop  offset="0" style="stop-color:#6DED79"/>
	<stop  offset="1" style="stop-color:#77FF00"/>
</linearGradient>
<path id="XMLID_257_" class="st2" d="M473.5,331.8c-1.5-0.2-3.1-0.4-4.6-0.6h-0.3c-5.6-0.8-11.5-1.6-16.9-1.5
	c-1.9,0-3.9,0.2-6.2,0.5c-1.4,0.2-2.9,0.4-4.3,0.7c-5,0.9-10.1,2.3-14.6,3.5c-7,1.9-14.2,3.8-21.6,4.6c-0.4,0-0.7,0.1-1.1,0.1h-0.6
	c-5.9,0.5-11.8,0.4-17.4,0.2h-0.7c-2.5-0.1-5-0.1-7.5-0.1h-1.4c-1.2,0-2.3,0-3.5,0.1h-0.7c-0.3,0-0.6,0-0.9,0
	c-1.9,0.1-3.5,0.2-5,0.4c-7.9,0.9-18.2,4.6-23.6,11.9c-1.2,1.6-2.1,3.4-2.7,5.2c-1.5,4.6-1.1,10-0.7,15.2
	c1.7,22.7,5.6,44.9,22.1,54.2c3,1.7,6.5,2.9,9.9,4.1c6.2,2.2,13.3,4.8,18.4,10.3c7.6,8.2,8.3,19.3,8.9,29.2
	c0.3,4.3,0.5,8.8,1.3,12.7c0.3,1.4,0.6,2.8,1.1,4.1c0.1,0.2,0.1,0.4,0.2,0.5c0.1,0.2,0.2,0.5,0.3,0.7l0.1,0.3c0.3,0.9,0.6,1.7,1,2.5
	c0.1,0.3,0.2,0.5,0.4,0.8l0.6,1.2c0.3,0.7,0.7,1.4,1.1,2.1c0.2,0.3,0.4,0.6,0.6,0.9l0.8,1.2c0.4,0.6,0.8,1.2,1.2,1.8
	c0.2,0.3,0.5,0.7,0.8,1l0.9,1.1c0.5,0.6,0.9,1.2,1.4,1.8c0.3,0.4,0.6,0.7,1,1.1l1,1.1c0.5,0.6,1,1.1,1.6,1.7
	c0.4,0.4,0.8,0.8,1.2,1.1l1.1,1c0.6,0.6,1.2,1.2,1.9,1.7c0.4,0.4,0.8,0.7,1.3,1.1c8.4-10.5,16-21.7,22.6-33.4
	c20.4-35.9,31.3-75.2,32.6-116.9l0,0c0.1-2.5,0.1-5,0.1-7.6C474.4,346.3,474.1,339.1,473.5,331.8z"/>
<linearGradient id="XMLID_34_" gradientUnits="userSpaceOnUse" x1="276.006" y1="412.4698" x2="505.3463" y2="546.565" gradientTransform="matrix(1 0 0 -1 0 712.1799)">
	<stop  offset="0" style="stop-color:#6DED79"/>
	<stop  offset="1" style="stop-color:#77FF00"/>
</linearGradient>
<path id="XMLID_265_" class="st3" d="M369.9,229.1c-9.6,23.4-36.3,34.6-59.8,25c-0.5-0.2-1-0.5-1.5-0.7l-1.4,0.3
	c-6.5,1.5-13.2,3.1-19,6c-0.7,0.3-1.3,0.7-2,1c-5.1,2.9-9.4,7.3-12.2,12.4c-2.2,3.9-3.4,8.1-3.5,12.1c-0.3,10,6.1,19.7,15,22.4
	c0.5,0.2,1.1,0.3,1.7,0.4c4.1,0.8,8.5,0,12.4-2.1c1-0.6,2-1.2,2.9-1.9l0.3-0.3c0.4-0.3,0.6-0.5,0.9-0.8c1.4-1.4,2.5-3,3.3-4.7
	c0.2-0.6,0.5-1.1,0.6-1.7c0.3-1.1,0.6-2.3,0.9-3.6c1.5-6.6,4.1-17.4,14.1-17c4,0.1,7,2.4,9.3,4.1c0.4,0.3,0.8,0.6,1.2,0.9
	c3.8,2.6,8,3.9,13.4,4c6.6,0.1,14-1.6,21.8-3.4c7.7-1.8,15.7-3.7,23.7-3.8c1.8,0,3.5,0,5.3,0.1h0.3c1.2,0.1,2.5,0.1,3.7,0.1
	c2.1,0,4.6,0,6.9-0.6c0.8-0.2,1.7-0.5,2.9-1c1.7-0.7,3.4-1.7,5.1-2.6c1.2-0.6,2.2-1.2,3.2-1.7c1.6-0.8,3.3-1.6,5.2-2.3l0.3-0.1
	c1.6-0.6,3.3-1.2,5.2-1.7l0.6-0.2c1.6-0.5,3.3-0.8,5.1-1.2l0.8-0.2c1.6-0.3,3.3-0.5,5.1-0.7l0.9-0.1c1.7-0.1,3.4-0.2,5.1-0.2h0.9
	c1.7,0,3.5,0.1,5.2,0.2l0.6,0.1c1.7,0.2,3.2,0.4,4.7,0.6c-14.8-40.4-39.7-76.4-72.5-104.6c-0.1,0-0.1,0.1-0.2,0.1
	c-2.3,1.7-4.7,3.7-5.3,5.8c-0.8,2.7,0.9,6.2,2.8,10.2c2.6,5.3,5.5,11.3,3.3,17.9c-0.4,1.2-1,2.4-1.7,3.5c-0.4,0.5-0.7,1-1.1,1.5
	c-2.9,3.4-7.1,5-11.2,5.8C373.9,213.9,372.9,221.7,369.9,229.1z"/>
<linearGradient id="XMLID_36_" gradientUnits="userSpaceOnUse" x1="332.0073" y1="471.3193" x2="231.38" y2="282.0441" gradientTransform="matrix(1 0 0 -1 0 712.1799)">
	<stop  offset="0" style="stop-color:#00E1FF"/>
	<stop  offset="1" style="stop-color:#007EDD"/>
</linearGradient>
<path id="XMLID_267_" class="st4" d="M409,516l-1.1-1c-0.5-0.5-1.1-1-1.5-1.5c-0.7-0.7-1.3-1.3-1.9-2l-0.9-1c-0.5-0.5-0.9-1-1.3-1.5
	c-0.6-0.7-1.1-1.3-1.6-2l-0.9-1.2c-0.4-0.5-0.8-1-1.1-1.5c-0.5-0.7-0.9-1.4-1.4-2.1l-0.7-1.2c-0.3-0.5-0.6-0.9-0.9-1.4
	c-0.4-0.8-0.8-1.6-1.2-2.4l-0.6-1.2c-0.2-0.5-0.5-0.9-0.7-1.4c-0.4-1-0.8-2-1.1-3l-0.3-0.9c-0.2-0.4-0.3-0.8-0.4-1.2
	c-0.5-1.7-1-3.5-1.4-5.2c-1-4.7-1.2-9.5-1.5-14.1c-0.5-9.3-1-17.3-6.1-22.8c-3.5-3.7-8.6-5.6-14.4-7.7c-3.8-1.4-7.7-2.8-11.4-4.8
	c-20.7-11.6-25.3-36.8-27.3-62.3c-0.4-5.9-0.9-12.5,1.1-19c1.7-5.5,5-10.3,9.8-14.2c8.6-7.1,19.3-9.3,24.9-10
	c0.8-0.1,1.7-0.2,2.5-0.2l0.7-0.1c5.8-0.4,11.5-0.3,17.4-0.2c6.1,0.2,12.4,0.3,18.4-0.3c6.7-0.7,13.5-2.5,20.1-4.3l3.3-0.9
	c5.4-1.4,11.3-2.8,17.3-3.6c2.5-0.3,4.7-0.5,6.9-0.5c6.2-0.1,12.5,0.7,18.6,1.6c0.8,0.1,1.6,0.2,2.3,0.3c-1-7.8-2.3-15.5-4-23
	c-1.5-6.8-3.4-13.8-5.6-20.7h-0.1l-1.5-0.4c-0.5-0.1-1-0.3-1.5-0.4c-0.7-0.2-1.5-0.3-2.2-0.4l-1.6-0.3c-0.5-0.1-1-0.2-1.4-0.2
	c-0.7-0.1-1.5-0.1-2.2-0.2l-1.7-0.1c-0.5,0-0.9-0.1-1.4-0.1c-0.7,0-1.5,0-2.2,0h-1.7c-0.4,0-0.9,0-1.3,0c-0.8,0.1-1.5,0.2-2.3,0.3
	l-1.7,0.2c-0.4,0-0.8,0.1-1.2,0.2c-0.8,0.1-1.6,0.3-2.4,0.5L435,277c-0.3,0.1-0.7,0.1-1,0.2c-1,0.3-1.9,0.6-2.9,0.9l-0.5,0.2
	c-0.3,0.1-0.6,0.2-0.8,0.3c-0.3,0.1-0.5,0.2-0.8,0.3c-1.6,0.6-3.2,1.3-4.8,2.1c-0.9,0.5-1.9,1-2.8,1.5c-2.9,1.6-5.5,3-8.5,4
	l-0.3,0.1c-0.5,0.2-1,0.4-1.6,0.5c-4.7,1.2-9.4,1-13.6,0.8c-1.8-0.1-3.4-0.2-5.1-0.1c-2.4,0-4.9,0.3-7.8,0.7
	c-4.5,0.7-9.2,1.8-13.7,2.8c-8.1,1.9-16.4,3.8-24.5,3.6c-6.2-0.1-11.5-1.5-16.3-4.2c-0.9-0.5-1.7-1-2.5-1.6c-0.5-0.3-1-0.7-1.5-1.1
	c-1.3-0.9-2.7-2-3.5-2l0,0c-1.7,0-3.2,6.3-3.8,9.1c-0.3,1.4-0.7,2.9-1,4.2c-1.9,6.5-6.4,12-12.9,15.5l-0.2,0.1
	c-0.3,0.2-0.6,0.3-1,0.4l-0.7,0.3c-0.4,0.2-0.8,0.4-1.2,0.5c-0.2,0.1-0.5,0.2-0.7,0.3c-1,0.4-1.7,0.6-2.5,0.8
	c-0.3,0.1-0.7,0.2-1.1,0.3c-0.8,0.2-1.7,0.4-2.5,0.5c-0.4,0.1-0.6,0.1-0.8,0.1c-1,0.1-2.1,0.2-3.1,0.2h-0.3c-0.2,0-0.4,0-0.6,0
	c-0.9,0-1.9-0.1-2.8-0.2c-0.3,0-0.6-0.1-1-0.1c-1.3-0.2-2.4-0.5-3.5-0.8c-1.4-0.4-2.9-1-4.4-1.8c-11.1-5.6-18.2-17.9-17.8-30.7
	c0.4-13,8.6-26,20.9-33c5-2.9,10.4-4.7,15.7-6.1c-14-12.6-19.4-33-11.9-51.4c9.6-23.4,36.3-34.6,59.8-25
	c12.6,5.2,21.6,15.3,25.8,27.2c2.8-0.6,5.1-1.4,6.2-3c0.2-0.3,0.4-0.7,0.6-1.1c0.9-2.7-0.8-6.2-2.8-10.2c-2.5-5.2-5.4-11-3.5-17.6
	c0.2-0.7,0.4-1.3,0.7-1.9c0.9-2.1,2.3-4,4.3-5.9l0.4-0.3c0.6-0.5,1.2-1.1,1.8-1.6c-12.6-10-26.1-18.7-40.2-26.1
	c-8-4.2-16.3-8-24.8-11.3c-0.3,0.4-0.5,0.8-0.8,1.1c-0.4,0.6-0.7,0.9-1,1.3c-0.4,0.5-0.7,0.9-1.1,1.3l-0.2,0.3
	c-0.3,0.3-0.5,0.6-0.8,0.9c-0.4,0.4-0.8,0.8-1.1,1.1l-0.4,0.4c-0.3,0.3-0.5,0.5-0.8,0.8c-0.4,0.4-0.8,0.7-1.3,1.1l-0.5,0.4
	c-0.3,0.2-0.5,0.4-0.8,0.6c-0.5,0.4-1,0.7-1.5,1l-0.5,0.4c-0.3,0.2-0.5,0.4-0.8,0.5c-0.6,0.4-1.2,0.7-1.8,1.1l-0.4,0.2
	c-0.2,0.1-0.4,0.3-0.7,0.4c-1,0.5-2,1-3,1.4c-2.8,1.1-5.6,2-8.4,2.8c-5.8,1.7-10.7,3.1-13.7,6.7c-1,1.2-1.8,2.7-2.6,4.5l-1.1,2.5
	c-2.7,6-6,11.8-9.7,17.3c-1.2,1.8-2.5,3.7-3.8,5.4c-0.9,1.2-2,2.7-3.6,3.8c-0.6,0.4-1.2,0.8-1.8,1.1c-0.7,0.4-1.5,0.6-2.3,0.8
	c-0.3,0.1-0.6,0.1-0.9,0.1c-0.5,0.1-0.8,0.1-1.2,0.1h-0.4c-0.6,0-1.3-0.1-1.9-0.2l-0.4-0.1c-0.5-0.1-1-0.2-1.5-0.4l-0.5-0.2
	c-0.5-0.2-1.1-0.4-1.6-0.7c-0.7-0.4-1.2-0.7-1.8-1l-0.3-0.2c-0.5-0.3-0.8-0.6-1.2-0.9l-0.4-0.4c-0.4-0.3-0.8-0.7-1.1-1.1l-0.2-0.2
	c-6.5-7-7.4-15.9-7.4-24.4c0-1.9,0-3.8,0.1-5.7c0.1-3.3,0.2-6.7,0-9.8c-0.1-1.5-0.3-3.1-0.5-4.6c0-0.3-0.1-0.6-0.2-0.8l-0.3-1.4
	c-0.2-0.8-0.3-1.6-0.5-2.3c-0.1-0.4-0.2-0.7-0.3-1.1l-0.5-1.5c-0.2-0.6-0.3-1.2-0.5-1.8c-0.1-0.4-0.3-0.8-0.5-1.2l-0.6-1.5
	c-0.2-0.6-0.4-1.1-0.6-1.6c-0.2-0.4-0.4-0.9-0.6-1.3l-0.6-1.3c-0.2-0.5-0.5-1-0.7-1.5s-0.5-1-0.7-1.4l-0.6-1.2
	c-0.2-0.5-0.5-1-0.7-1.4c-0.3-0.5-0.5-1-0.8-1.4l-0.7-1.2c-0.3-0.4-0.5-0.9-0.8-1.3c-0.3-0.5-0.6-1-0.9-1.6V100
	c-13.6,0.2-27.2,1.6-40.4,4l10,20.8c2.1,4.1,4,8.5,2.7,13.5c-1.5,6.3-7.4,9.6-10.6,11.4l-1.9,1.1c-10.6,6-21.6,12.2-29.7,20.9
	c-7.1,7.6-13.7,20-10.7,32c0.9,3.9,2.9,7.8,4.8,11.6c2.4,4.9,5,10,6,15.8c3.1,18-9.8,33.4-17.8,41c-3.5,3.3-7.2,6.4-10.9,9.4
	c-6.8,5.6-13.7,11.4-18.7,18.3c-2.7,3.8-4.7,8.4-5.7,13.1c-1,4.5-1.7,12.9,3.8,18.9c2.4,2.6,6,4.7,9.4,6.7c5,2.9,10.6,6.1,14.1,11.7
	c0.9,1.3,1.5,2.7,2.1,4.1l15.8-24.4l34.8,53.3c0.2,0,0.5-0.1,0.7-0.1c2-0.3,4.1-0.6,6.1-0.9c19.6-2.8,39.8-5.7,56,6.2
	c1.2,0.9,2.3,1.8,3.4,2.8c1.8,1.5,3.3,2.7,5,3.7c3.9,2.2,9.3,2.7,14.5,3.3c8.5,0.9,18.2,1.9,23.9,10.2c7.5,10.9,1.1,25.6-9.1,34.4
	c-2.3,2-4.8,3.9-7,5.6c-6.2,4.7-11.5,8.8-14.1,14.6c-3.4,7.6-1.4,16.1,0.9,26c1.6,7,3.3,14.2,2.9,21.5l7.3,11.1l60.4-96.7l70.6,112
	c5.4-5.2,10.6-10.5,15.5-16c0.6-0.7,1.1-1.3,1.7-2c-0.5-0.4-1.1-0.9-1.6-1.3C410.3,517.2,409.6,516.6,409,516z"/>
<linearGradient id="XMLID_37_" gradientUnits="userSpaceOnUse" x1="293.7066" y1="109.8619" x2="349.6107" y2="236.0454" gradientTransform="matrix(1 0 0 -1 0 712.1799)">
	<stop  offset="0" style="stop-color:#FF9D00"/>
	<stop  offset="1" style="stop-color:#FFC200"/>
</linearGradient>
<path id="XMLID_271_" class="st5" d="M223.5,606.7c28.2-0.3,55.9-5.1,82.4-14.5c30.2-10.7,57.7-26.9,81.9-48.1l-62.9-99.8
	L223.5,606.7z"/>
<g id="XMLID_5_" class="st6">
	
		<image style="overflow:visible;enable-background:new    ;" width="582" height="595" id="XMLID_21_" xlink:href="B79F394E.png"  transform="matrix(0.6088 0 0 0.6078 133.0499 81.7279)">
	</image>
</g>
<circle id="XMLID_6_" class="st7" cx="181.2" cy="176.3" r="4.3"/>
<circle id="XMLID_85_" class="st7" cx="203.8" cy="251.6" r="4.3"/>
<circle id="XMLID_103_" class="st8" cx="198.2" cy="321.9" r="4.3"/>
<circle id="XMLID_111_" class="st8" cx="305.6" cy="332.6" r="4.3"/>
<circle id="XMLID_123_" class="st9" cx="299.2" cy="434.1" r="4.3"/>
<circle id="XMLID_134_" class="st9" cx="267.5" cy="493.7" r="4.3"/>
<circle id="XMLID_130_" class="st9" cx="367.1" cy="462.6" r="4.3"/>
<circle id="XMLID_119_" class="st8" cx="395.2" cy="298.2" r="4.3"/>
<circle id="XMLID_99_" class="st10" cx="260" cy="251.6" r="4.3"/>
<circle id="XMLID_73_" class="st7" cx="171" cy="225.7" r="4.3"/>
<circle id="XMLID_86_" class="st8" cx="180.2" cy="284.1" r="4.3"/>
<circle id="XMLID_105_" class="st8" cx="185.5" cy="357.9" r="4.3"/>
<circle id="XMLID_18_" class="st7" cx="338.4" cy="140.6" r="4.3"/>
<circle id="XMLID_13_" class="st7" cx="283.6" cy="154.7" r="4.3"/>
<circle id="XMLID_11_" class="st7" cx="209.6" cy="151.5" r="3.1"/>
<circle id="XMLID_72_" class="st7" cx="231.4" cy="209.8" r="3.1"/>
<circle id="XMLID_100_" class="st8" cx="112" cy="303.4" r="3.1"/>
<circle id="XMLID_88_" class="st8" cx="218.2" cy="288.8" r="3.1"/>
<circle id="XMLID_104_" class="st8" cx="153.8" cy="308.4" r="3.1"/>
<circle id="XMLID_107_" class="st8" cx="242" cy="350.4" r="3.1"/>
<circle id="XMLID_122_" class="st8" cx="318" cy="409.4" r="3.1"/>
<circle id="XMLID_118_" class="st8" cx="361.6" cy="315.6" r="3.1"/>
<circle id="XMLID_125_" class="st7" cx="455.2" cy="309.9" r="3.1"/>
<circle id="XMLID_112_" class="st8" cx="267.5" cy="383.4" r="3.1"/>
<circle id="XMLID_128_" class="st9" cx="269" cy="468.2" r="3.1"/>
<circle id="XMLID_133_" class="st9" cx="394.8" cy="517" r="3.1"/>
<circle id="XMLID_106_" class="st8" cx="251.7" cy="306.3" r="3.1"/>
<circle id="XMLID_116_" class="st8" cx="291.1" cy="357.9" r="3.1"/>
<circle id="XMLID_75_" class="st10" cx="264.4" cy="222.6" r="3.1"/>
<circle id="XMLID_30_" class="st7" cx="256.9" cy="180.4" r="3.1"/>
<circle id="XMLID_19_" class="st7" cx="360.9" cy="161.4" r="3.1"/>
<circle id="XMLID_15_" class="st7" cx="210.7" cy="114.3" r="3.1"/>
<circle id="XMLID_12_" class="st7" cx="220.8" cy="188" r="1.5"/>
<circle id="XMLID_82_" class="st7" cx="209.6" cy="230" r="1.5"/>
<circle id="XMLID_87_" class="st8" cx="143.9" cy="279.8" r="1.5"/>
<circle id="XMLID_102_" class="st8" cx="161.9" cy="338.8" r="1.5"/>
<circle id="XMLID_108_" class="st8" cx="225.7" cy="320.2" r="1.5"/>
<circle id="XMLID_114_" class="st8" cx="211" cy="348.8" r="1.5"/>
<circle id="XMLID_31_" class="st7" cx="264.4" cy="199.6" r="1.5"/>
<circle id="XMLID_81_" class="st10" cx="242" cy="233.6" r="1.5"/>
<circle id="XMLID_89_" class="st7" cx="231.4" cy="262.7" r="1.5"/>
<circle id="XMLID_110_" class="st8" cx="247.1" cy="284.1" r="1.5"/>
<circle id="XMLID_109_" class="st8" cx="267.5" cy="334" r="1.5"/>
<circle id="XMLID_124_" class="st8" cx="313.4" cy="357.9" r="1.5"/>
<circle id="XMLID_132_" class="st9" cx="379.4" cy="492.2" r="1.5"/>
<circle id="XMLID_117_" class="st8" cx="297.7" cy="395.7" r="1.5"/>
<circle id="XMLID_131_" class="st9" cx="342.2" cy="434.1" r="1.5"/>
<circle id="XMLID_129_" class="st9" cx="289.4" cy="461.5" r="1.5"/>
<circle id="XMLID_135_" class="st8" cx="316.3" cy="383.4" r="1.5"/>
<circle id="XMLID_115_" class="st8" cx="327.5" cy="305.3" r="1.5"/>
<circle id="XMLID_126_" class="st7" cx="336.3" cy="325.5" r="1.5"/>
<circle id="XMLID_121_" class="st7" cx="445.8" cy="288.8" r="1.5"/>
<circle id="XMLID_127_" class="st7" cx="425.4" cy="302.5" r="1.5"/>
<circle id="XMLID_120_" class="st8" cx="399.6" cy="320.2" r="1.5"/>
<circle id="XMLID_113_" class="st8" cx="231.4" cy="378.8" r="1.5"/>
<circle id="XMLID_20_" class="st7" cx="322.5" cy="131" r="1.5"/>
<circle id="XMLID_17_" class="st7" cx="276.4" cy="173.4" r="1.5"/>
<circle id="XMLID_16_" class="st7" cx="199.6" cy="136.3" r="1.5"/>
<circle id="XMLID_84_" class="st7" cx="189.6" cy="111.2" r="1.5"/>
<circle id="XMLID_35_" class="st7" cx="191.1" cy="208.4" r="1.5"/>
<circle id="XMLID_32_" class="st7" cx="152.3" cy="193.3" r="1.5"/>
<circle id="XMLID_14_" class="st7" cx="306.5" cy="151.5" r="1.5"/>
<circle id="XMLID_29_" class="st7" cx="342.8" cy="156.1" r="1.5"/>
<circle id="XMLID_83_" class="st7" cx="160.4" cy="247.9" r="1.5"/>
<circle id="XMLID_101_" class="st8" cx="118.7" cy="331.1" r="1.5"/>
<linearGradient id="XMLID_38_" gradientUnits="userSpaceOnUse" x1="125.8324" y1="527.8114" x2="280.5755" y2="527.8114" gradientTransform="matrix(0.9933 -0.1157 -0.1157 -0.9933 40.4145 739.4528)">
	<stop  offset="0" style="stop-color:#FFFFFF;stop-opacity:0"/>
	<stop  offset="0.525" style="stop-color:#FFFFFF"/>
	<stop  offset="1" style="stop-color:#FFFFFF;stop-opacity:0"/>
</linearGradient>
<polygon id="XMLID_139_" class="st11" points="250.2,143 250.2,143 250.2,143 250.2,143 250.2,143 110.5,237.7 109,240.7 
	112.3,240.4 252,145.6 253.4,142.9 "/>
<linearGradient id="XMLID_39_" gradientUnits="userSpaceOnUse" x1="33.3435" y1="368.5565" x2="281.9809" y2="368.5565" gradientTransform="matrix(0.9933 -0.1157 -0.1157 -0.9933 40.4145 739.4528)">
	<stop  offset="0" style="stop-color:#FFFFFF;stop-opacity:0"/>
	<stop  offset="0.525" style="stop-color:#FFFFFF"/>
	<stop  offset="1" style="stop-color:#FFFFFF;stop-opacity:0"/>
</linearGradient>
<polygon id="XMLID_136_" class="st12" points="265.3,276.9 265.3,276.9 265.3,276.9 265.3,276.9 265.3,276.9 40.8,429.1 38.4,434 
	43.7,433.4 268.2,281.1 270.4,276.7 "/>
<linearGradient id="XMLID_40_" gradientUnits="userSpaceOnUse" x1="287.391" y1="346.1874" x2="442.245" y2="346.1874" gradientTransform="matrix(0.9933 -0.1157 -0.1157 -0.9933 40.4145 739.4528)">
	<stop  offset="0" style="stop-color:#FFFFFF;stop-opacity:0"/>
	<stop  offset="0.525" style="stop-color:#FFFFFF"/>
	<stop  offset="1" style="stop-color:#FFFFFF;stop-opacity:0"/>
</linearGradient>
<polygon id="XMLID_137_" class="st13" points="431.8,304.7 431.8,304.7 431.8,304.7 431.8,304.7 431.8,304.7 292,399.5 290.5,402.5 
	293.8,402.1 433.6,307.3 435,304.6 "/>
<path id="XMLID_138_" class="st14" d="M187.1,437.3c0.1,2-1.3,24.1-1.2,24.9c0.7,7.7-17.9,7.7-17.9,7.7s12.2-3.7,12.7-11.4
	c0.5-7.7,0.1-10.1-1.6-9.6c-1.7,0.5-3.2,0.7-3.2,0.7s-6.1-16.3-8.3-21c-2.1-4.7-8.9-14.8-9.8-17.1c-1-2.2-2.5-4-2.5-4l5.6,36
	c0,0-4.6-1.7-7.7-7.7c-3.1-5.9-10.5-42.4-11.4-40.2c-0.9,2.2-0.6,10.4-0.1,14.6s2.9,14.1,2.9,15.1s-3.2,14.3-2.2,21
	s1.3,16.6,1.3,16.6s-9-8.1-9.6-8.3c-0.6-0.2,7.1-19.9,6-26.6s-3.3-11.6-3.3-11.6l-0.7-25.5c0,0-9,10.8-10.4,19.7
	c-1.3,8.9-2.6,20.3-2.8,23.5s0.3,11.1-0.2,12.3c-0.5,1.2-10.1,7.5-11.7,9.9c-1.6,2.5-7.8,5.6-7.8,5.6s5.6-13.6,6.4-14.6
	c0.8-1-0.1-12.1,0-16.6s0.2-6.4,0.2-6.4s-5.1,14.8-6,15.3s-5.8-19.3-8-15.2c-2.2,4.2-5.1,18.8-5.8,19.5s-10,21-13.3,22.5
	c-3.4,1.5-19.3,8.9-19.3,8.9l25.7-39.4c0,0,20.8-33,23.6-37.4c2.8-4.5-3.4,5.9,0,0s32.6-50.1,32.6-50.1s0,0,7.1,10.9l24.6,37.6
	l16.1,24.6l6.2,9.9l25.5,38.6l1.8,16.7l-8.5,13.1v-33.4L187.1,437.3z"/>
<path id="XMLID_10_" class="st15" d="M373.3,535.1c0.1,2,3.2,7.5,3.2,8.3c0.7,7.7-7,16-7,16s-3.2,4.7-2.7-3s0.1-10.2-1.6-9.7
	s-3.2,0.7-3.2,0.7s-6.2-16.4-8.3-21.1c-2.1-4.7-8.9-14.9-9.9-17.2c-1-2.2-2.5-4-2.5-4l5.7,36.2c0,0-4.6-1.7-7.7-7.7
	s-10.6-42.7-11.5-40.4c-0.9,2.2-0.6,10.4-0.1,14.7c0.5,4.2,2.9,14.2,2.9,15.2s-3.2,14.4-2.2,21.1s1.3,16.7,1.3,16.7s-9-8.1-9.6-8.4
	c-0.6-0.2,7.1-20,6-26.7s-3.3-11.7-3.3-11.7l-0.7-25.6c0,0-4.5,13.9-5.8,22.9c-1.4,9-10.7,13.1-10.7,13.1c-0.2,3.2-1.8,18.7-2.3,20
	c-0.5,1.2,0,0,0,0c-1.6,2.5,0,0,0,0s-8.7-14.8-7.9-15.8c0.8-1-0.1,4.5,0,0s0.2-6.5,0.2-6.5s-6.3,6.9-7.2,7.4
	c-0.9,0.5-6.9-7.2-6.9-7.2c-2.2,4.2-5.1,18.9-5.8,19.6c-0.7,0.7-10,21.1-13.4,22.6s-17.9,8.2-17.9,8.2l22.8-36.6
	c0,0,10.4-16.9,13.2-21.4c2.8-4.5,8.8-13.7,8.8-13.7c3.4-6,35.4-56.9,35.4-56.9l8,13l24.5,38.8l14.9,23.6l6.4,10.3"/>
<rect id="XMLID_147_" x="132" y="503.4" transform="matrix(-0.8297 0.5583 -0.5583 -0.8297 530.6521 851.593)" class="st16" width="6.8" height="6.8"/>
<rect id="XMLID_152_" x="167.6" y="516.8" transform="matrix(-0.8297 0.5583 -0.5583 -0.8297 603.3281 856.2432)" class="st17" width="6.8" height="6.8"/>
<rect id="XMLID_143_" x="167.6" y="558.7" transform="matrix(-0.8297 0.5583 -0.5583 -0.8297 626.7405 932.896)" class="st17" width="6.8" height="6.8"/>
<rect id="XMLID_163_" x="252.3" y="585.5" transform="matrix(-0.8297 0.5583 -0.5583 -0.8297 796.6114 934.66)" class="st17" width="6.8" height="6.8"/>
<rect id="XMLID_161_" x="308.1" y="547.5" transform="matrix(-0.8297 0.5583 -0.5583 -0.8297 877.4783 834.0115)" class="st17" width="6.8" height="6.8"/>
<rect id="XMLID_156_" x="231.1" y="542.8" transform="matrix(-0.8297 0.5583 -0.5583 -0.8297 734.0153 868.3864)" class="st18" width="6.8" height="6.8"/>
<rect id="XMLID_145_" x="105.5" y="558.6" transform="matrix(-0.8297 0.5583 -0.5583 -0.8297 513.0933 967.5359)" class="st19" width="6.8" height="6.8"/>
<rect id="XMLID_80_" x="53.6" y="511.4" transform="matrix(-0.8297 0.5583 -0.5583 -0.8297 388.5899 908.4046)" class="st20" width="4.2" height="4.2"/>
<rect id="XMLID_146_" x="111.5" y="475.6" transform="matrix(-0.8297 0.5583 -0.5583 -0.8297 474.5918 810.5295)" class="st16" width="4.2" height="4.2"/>
<rect id="XMLID_166_" x="352.4" y="540.5" transform="matrix(-0.8297 0.5583 -0.5583 -0.8297 951.5765 794.7831)" class="st17" width="4.2" height="4.2"/>
<rect id="XMLID_149_" x="150.3" y="472.6" transform="matrix(-0.8297 0.5583 -0.5583 -0.8297 543.9081 783.4889)" class="st17" width="4.2" height="4.2"/>
<rect id="XMLID_151_" x="182.5" y="487.2" transform="matrix(-0.8297 0.5583 -0.5583 -0.8297 610.9831 792.2189)" class="st17" width="4.2" height="4.2"/>
<rect id="XMLID_142_" x="108.6" y="528.1" transform="matrix(-0.8297 0.5583 -0.5583 -0.8297 498.5612 908.2437)" class="st16" width="4.2" height="4.2"/>
<rect id="XMLID_7_" x="86.8" y="491.6" transform="matrix(-0.8297 0.5583 -0.5583 -0.8297 438.3172 853.579)" class="st16" width="4.2" height="4.2"/>
<rect id="XMLID_153_" x="141.8" y="575.8" transform="matrix(-0.8297 0.5583 -0.5583 -0.8297 586.0246 977.0644)" class="st19" width="4.2" height="4.2"/>
<rect id="XMLID_148_" x="138.1" y="542.1" transform="matrix(-0.8297 0.5583 -0.5583 -0.8297 560.2253 917.3993)" class="st21" width="4.2" height="4.2"/>
<rect id="XMLID_159_" x="206.1" y="562.9" transform="matrix(-0.8297 0.5583 -0.5583 -0.8297 696.2483 917.482)" class="st18" width="4.2" height="4.2"/>
<rect id="XMLID_162_" x="285.9" y="555.1" transform="matrix(-0.8297 0.5583 -0.5583 -0.8297 838.0416 858.7551)" class="st17" width="4.2" height="4.2"/>
<rect id="XMLID_157_" x="200.4" y="535.1" transform="matrix(-0.8297 0.5583 -0.5583 -0.8297 670.4706 869.729)" class="st17" width="4.2" height="4.2"/>
<rect id="XMLID_164_" x="303.4" y="575.8" transform="matrix(-0.8297 0.5583 -0.5583 -0.8297 881.5095 886.8723)" class="st17" width="4.2" height="4.2"/>
<rect id="XMLID_155_" x="191.8" y="589.6" transform="matrix(-0.8297 0.5583 -0.5583 -0.8297 685.1334 974.4259)" class="st19" width="4.2" height="4.2"/>
<rect id="XMLID_154_" x="217.2" y="507.4" transform="matrix(-0.8297 0.5583 -0.5583 -0.8297 685.7134 809.728)" class="st17" width="4.2" height="4.2"/>
<rect id="XMLID_165_" x="342.1" y="558.1" transform="matrix(-0.1919 0.9814 -0.9814 -0.1919 960.0291 329.9056)" class="st17" width="4.2" height="4.2"/>
<rect id="XMLID_140_" x="75.3" y="544.7" transform="matrix(-0.8297 0.5583 -0.5583 -0.8297 445.4486 956.4053)" class="st16" width="3" height="3"/>
<rect id="XMLID_144_" x="87.4" y="510" transform="matrix(-0.8297 0.5583 -0.5583 -0.8297 448.3036 886.3079)" class="st16" width="3" height="3"/>
<rect id="XMLID_150_" x="77.4" y="481" transform="matrix(-0.8297 0.5583 -0.5583 -0.8297 413.7438 838.8283)" class="st19" width="3" height="3"/>
<linearGradient id="XMLID_41_" gradientUnits="userSpaceOnUse" x1="142.0299" y1="413.847" x2="-28.4087" y2="393.7954" gradientTransform="matrix(1 0 0 -1 0 712.1799)">
	<stop  offset="0" style="stop-color:#6DED79"/>
	<stop  offset="1" style="stop-color:#77FF00"/>
</linearGradient>
<path id="XMLID_78_" class="st22" d="M-10.9,305.4c0.2,2,0.4,4,0.8,6.1c0.9,5,2.2,10,3.7,15.3l-0.1-0.5L-10.9,305.4z"/>
<linearGradient id="XMLID_42_" gradientUnits="userSpaceOnUse" x1="137.0463" y1="456.2077" x2="-33.3924" y2="436.1561" gradientTransform="matrix(1 0 0 -1 0 712.1799)">
	<stop  offset="0" style="stop-color:#6DED79"/>
	<stop  offset="1" style="stop-color:#77FF00"/>
</linearGradient>
<path id="XMLID_97_" class="st23" d="M-2.1,271.6c-0.1,0.5-0.2,1.1-0.3,1.6l0.5-1.4L-2.1,271.6z"/>
<linearGradient id="XMLID_43_" gradientUnits="userSpaceOnUse" x1="138.8777" y1="440.6408" x2="-31.5609" y2="420.5892" gradientTransform="matrix(1 0 0 -1 0 712.1799)">
	<stop  offset="0" style="stop-color:#6DED79"/>
	<stop  offset="1" style="stop-color:#77FF00"/>
</linearGradient>
<path id="XMLID_98_" class="st24" d="M-6.6,283.4l-0.4,0.8c-2.5,4.7-3.8,9.7-4,15.3l7-21.4C-4.8,280-5.8,281.8-6.6,283.4z"/>
<path id="XMLID_160_" class="st25" d="M-4,278.2c0.7-1.6,1.2-3.2,1.6-5L-4,278.2z"/>
<path id="XMLID_167_" class="st25" d="M-3.1,338.5c-0.8-2.8-1.6-5.7-2.4-8.5c-0.3-1-0.6-2.1-0.9-3.1l2.8,21.9
	c0.3-2.6,0.7-5.2,1.1-7.8c0-0.1-0.1-0.2-0.1-0.4L-3.1,338.5z"/>
<path id="XMLID_170_" class="st25" d="M-11,299.5l-0.7,2l0.8,3.9C-11,303.4-11.1,301.4-11,299.5z"/>
<linearGradient id="XMLID_44_" gradientUnits="userSpaceOnUse" x1="88.0078" y1="320.9417" x2="-77.418" y2="269.5594" gradientTransform="matrix(1 0 0 -1 0 712.1799)">
	<stop  offset="0" style="stop-color:#6DED79"/>
	<stop  offset="1" style="stop-color:#77FF00"/>
</linearGradient>
<path id="XMLID_92_" class="st26" d="M100.8,389.4c-6.4-9.4-13.3-15.1-21.6-18.1c-4.5-1.6-9.6-2.2-14.5-2.9
	c-2.8-0.4-5.6-0.7-8.4-1.3C39,364,23,354.8,11.4,341.7c-1.1,9.4,4,21.5,15.7,36.6l6.7,8.7l-10.9-0.5c-9.6-0.4-16.3-4.3-21.2-10
	c3.2,24.8,12.8,64.3,41.4,102.1L100.8,389.4z"/>
<linearGradient id="XMLID_45_" gradientUnits="userSpaceOnUse" x1="79.2186" y1="349.2386" x2="-86.2071" y2="297.8564" gradientTransform="matrix(1 0 0 -1 0 712.1799)">
	<stop  offset="0" style="stop-color:#6DED79"/>
	<stop  offset="1" style="stop-color:#77FF00"/>
</linearGradient>
<path id="XMLID_96_" class="st27" d="M-12.9,341.1c-0.7-2.8-1.5-5.6-2.3-8.3c-1.9-6.5-3.8-13.3-4.9-19.9c-2.3-13.1-1-23.8,4.1-33.5
	l0.4-0.8c2-3.7,3.8-7.2,3.5-10.4c-0.2-2-1.3-3.8-3.3-5.6c-6.2,16.2-10.8,33.1-13.5,50.2c-2.2,13.4-3.2,27-3.2,40.6
	c0,56.9,19.3,112.4,54.5,157l20.7-31.9c-28.7-37.7-38.3-77.2-41.5-102c-7.4-8.6-10.8-21.4-14-33.3L-12.9,341.1z"/>
<path id="XMLID_95_" class="st25" d="M-12.9,341.1c-0.7-2.8-1.5-5.6-2.3-8.3c-1.9-6.5-3.8-13.3-4.9-19.9c-2.3-13.1-1-23.8,4.1-33.5
	l0.4-0.8c2-3.7,3.8-7.2,3.5-10.4c-0.2-2-1.3-3.8-3.3-5.6c-6.2,16.2-10.8,33.1-13.5,50.2c-2.2,13.4-3.2,27-3.2,40.6
	c0,56.9,19.3,112.4,54.5,157l20.7-31.9c-28.7-37.7-38.3-77.2-41.5-102c-7.4-8.6-10.8-21.4-14-33.3L-12.9,341.1z"/>
<linearGradient id="XMLID_46_" gradientUnits="userSpaceOnUse" x1="257.1704" y1="548.5606" x2="224.5865" y2="658.8444" gradientTransform="matrix(1 0 0 -1 0 712.1799)">
	<stop  offset="0" style="stop-color:#6DED79"/>
	<stop  offset="1" style="stop-color:#77FF00"/>
</linearGradient>
<path id="XMLID_93_" class="st28" d="M238.3,132.5c0.1,3.2,0.1,6.5,0,9.7c-0.2,9.4-0.4,17.6,4.6,23c1.4,1.5,3.2,2.1,3.7,1.9
	c0.1,0,0.3-0.2,0.6-0.5c0.4-0.4,0.8-0.9,1.2-1.4c4.8-6.5,9-13.5,12.4-20.9l0.4-0.9c0.6-1.4,1.2-2.7,2-4.1l0.2-0.4
	c0.7-1.2,1.3-2.1,1.9-3C256.4,132.5,245.7,132.2,238.3,132.5z"/>
<linearGradient id="XMLID_47_" gradientUnits="userSpaceOnUse" x1="280.5411" y1="555.4656" x2="247.9572" y2="665.7494" gradientTransform="matrix(1 0 0 -1 0 712.1799)">
	<stop  offset="0" style="stop-color:#6DED79"/>
	<stop  offset="1" style="stop-color:#77FF00"/>
</linearGradient>
<path id="XMLID_234_" class="st29" d="M282.2,125.7l2.2-0.6c2.7-0.8,5.3-1.5,7.6-2.5c0.7-0.3,1.5-0.6,2.2-1l0.7-0.4
	c0.5-0.3,1-0.5,1.4-0.8c0.2-0.1,0.3-0.2,0.4-0.3l0.3-0.3c0.5-0.3,0.8-0.6,1.2-0.9c0.2-0.1,0.4-0.3,0.6-0.4l0.3-0.2
	c0.4-0.3,0.8-0.6,1.1-0.9c0.2-0.2,0.4-0.4,0.6-0.5l0.2-0.2c0.3-0.3,0.7-0.7,1-1c0.2-0.2,0.4-0.5,0.6-0.7c0.3-0.4,0.6-0.7,0.9-1
	c-24.2-8.3-49.5-12.9-75.2-13.6c0.2,0.4,0.5,0.8,0.7,1.3c0.4,0.8,0.8,1.6,1.2,2.4c0.3,0.7,0.7,1.4,1,2.1c0.4,0.8,0.7,1.6,1.1,2.4
	l0.3,0.6c0.3,0.6,0.5,1.1,0.7,1.7c0.3,0.8,0.6,1.6,0.9,2.5l0.3,0.8c0.2,0.5,0.4,1.1,0.6,1.6c0.3,0.9,0.5,1.7,0.8,2.6l0.3,1
	c0.1,0.5,0.3,1,0.4,1.5c0.3,1.1,0.5,2.2,0.7,3.3l0.2,0.8c0.1,0.4,0.2,0.8,0.2,1.2c0.3,1.9,0.5,3.7,0.6,5.5c0,0.4,0,0.7,0,1.1
	c7.4-0.4,18.1-0.1,26.9,3.4c0.2-0.3,0.4-0.6,0.7-0.9C270.3,129.6,276.7,127.4,282.2,125.7z"/>
<path id="XMLID_233_" class="st25" d="M282.2,125.7l2.2-0.6c2.7-0.8,5.3-1.5,7.6-2.5c0.7-0.3,1.5-0.6,2.2-1l0.7-0.4
	c0.5-0.3,1-0.5,1.4-0.8c0.2-0.1,0.3-0.2,0.4-0.3l0.3-0.3c0.5-0.3,0.8-0.6,1.2-0.9c0.2-0.1,0.4-0.3,0.6-0.4l0.3-0.2
	c0.4-0.3,0.8-0.6,1.1-0.9c0.2-0.2,0.4-0.4,0.6-0.5l0.2-0.2c0.3-0.3,0.7-0.7,1-1c0.2-0.2,0.4-0.5,0.6-0.7c0.3-0.4,0.6-0.7,0.9-1
	c-24.2-8.3-49.5-12.9-75.2-13.6c0.2,0.4,0.5,0.8,0.7,1.3c0.4,0.8,0.8,1.6,1.2,2.4c0.3,0.7,0.7,1.4,1,2.1c0.4,0.8,0.7,1.6,1.1,2.4
	l0.3,0.6c0.3,0.6,0.5,1.1,0.7,1.7c0.3,0.8,0.6,1.6,0.9,2.5l0.3,0.8c0.2,0.5,0.4,1.1,0.6,1.6c0.3,0.9,0.5,1.7,0.8,2.6l0.3,1
	c0.1,0.5,0.3,1,0.4,1.5c0.3,1.1,0.5,2.2,0.7,3.3l0.2,0.8c0.1,0.4,0.2,0.8,0.2,1.2c0.3,1.9,0.5,3.7,0.6,5.5c0,0.4-0.1-0.5-0.1-0.1
	c7.4-0.4,18.2,1.1,27,4.6c0.2-0.3,0.4-0.6,0.7-0.9C270.3,129.6,276.7,127.4,282.2,125.7z"/>
<image style="overflow:visible;enable-background:new    ;" width="441" height="441" id="XMLID_237_" xlink:href="8A034890.png"  transform="matrix(0.6081 0 0 0.6081 -17.6652 324.5332)">
</image>
<image style="overflow:visible;enable-background:new    ;" width="364" height="367" id="XMLID_238_" xlink:href="8A034893.png"  transform="matrix(0.6075 0 0 0.6076 224.4808 379.3727)">
</image>
<path id="XMLID_3_" class="st30" d="M139.4,349.3l-110,169.9c46,53.4,112.2,85.3,182.4,87.9l47-75.2L139.4,349.3z"/>
<path id="XMLID_4_" class="st30" d="M79.4,371.9c-4.5-1.6-9.6-2.2-14.5-2.9c-2.8-0.4-5.6-0.7-8.4-1.3c-17.3-3.2-33.3-12.4-44.9-25.6
	c-1.1,9.4,4,21.5,15.7,36.6l6.7,8.7L23,387c-24-1-30-23.5-35.2-43.3l-0.6-2.1c-0.7-2.8-1.5-5.6-2.3-8.3c-1.9-6.5-3.8-13.3-4.9-19.9
	c-2.3-13.1-1-23.8,4.1-33.5l0.4-0.8c2-3.7,3.8-7.2,3.5-10.4c-0.2-2-1.3-3.8-3.3-5.6c-6.2,16.2-10.8,33.1-13.5,50.2
	c-2.2,13.4-3.2,27-3.2,40.6c0,56.9,19.3,112.4,54.5,157l78.4-121C94.6,380.6,87.7,374.8,79.4,371.9z"/>
<path id="XMLID_8_" class="st30" d="M230.4,104.5c0.3,0.7,0.7,1.4,1,2.1c0.4,0.8,0.7,1.6,1.1,2.4l0.3,0.6c0.3,0.6,0.5,1.1,0.7,1.7
	c0.3,0.8,0.6,1.6,0.9,2.5l0.3,0.8c0.2,0.5,0.4,1.1,0.6,1.6c0.3,0.9,0.5,1.7,0.8,2.6l0.3,1c0.1,0.5,0.3,1,0.4,1.5
	c0.3,1.1,0.5,2.2,0.7,3.3l0.2,0.8c0.1,0.4,0.2,0.8,0.2,1.2c0.3,1.9,0.5,3.7,0.6,5.5c0.2,3.6,0.1,7.2,0,10.7
	c-0.2,9.4-0.4,17.6,4.6,23c1.4,1.5,3.2,2.1,3.7,1.9c0.1,0,0.3-0.2,0.6-0.5c0.4-0.4,0.8-0.9,1.2-1.4c4.8-6.5,9-13.5,12.4-20.9
	l0.4-0.9c0.6-1.4,1.2-2.7,2-4.1l0.2-0.4c0.9-1.6,1.7-2.8,2.6-3.9c4.5-5.4,10.8-7.6,16.3-9.3l2.2-0.6c2.7-0.8,5.3-1.5,7.6-2.5
	c0.7-0.3,1.5-0.6,2.2-1l0.7-0.4c0.5-0.3,1-0.5,1.4-0.8c0.2-0.1,0.3-0.2,0.4-0.3l0.4-0.2c0.5-0.3,0.8-0.6,1.2-0.9
	c0.2-0.1,0.4-0.3,0.6-0.4l0.3-0.2c0.4-0.3,0.8-0.6,1.1-0.9c0.2-0.2,0.4-0.4,0.6-0.5l0.2-0.2c0.3-0.3,0.7-0.7,1-1
	c0.2-0.2,0.4-0.5,0.6-0.7c0.3-0.4,0.6-0.7,0.9-1c-24.2-8.3-49.5-12.9-75.2-13.6c0.2,0.4,0.5,0.8,0.7,1.3
	C229.5,102.9,229.9,103.7,230.4,104.5z"/>
<path id="XMLID_91_" class="st30" d="M261.5,441c2.2-1.7,4.5-3.4,6.5-5.2c6.6-5.8,11.5-15.1,7.4-21c-3-4.4-9.3-5.1-16.5-5.8
	c-6.2-0.7-12.7-1.3-18.4-4.5c-2.5-1.4-4.6-3.2-6.5-4.7c-1-0.8-2-1.6-3-2.4c-12.9-9.4-31-6.8-48.5-4.3c-0.7,0.1-1.4,0.2-2.1,0.3
	l64,97.9c-2.3-10-4.7-21.2-0.1-31.7C248,451.4,255.2,445.9,261.5,441z"/>
<path id="XMLID_231_" class="st30" d="M473.6,332.3c-1.5-0.2-3.1-0.4-4.6-0.6h-0.3c-5.6-0.8-11.5-1.6-16.9-1.5
	c-1.9,0-3.9,0.2-6.2,0.5c-1.4,0.2-2.9,0.4-4.3,0.7c-5,0.9-10.1,2.3-14.6,3.5c-7,1.9-14.2,3.8-21.6,4.6c-0.4,0-0.7,0.1-1.1,0.1h-0.6
	c-5.9,0.5-11.8,0.4-17.4,0.2h-0.7c-2.5-0.1-5-0.1-7.5-0.1h-1.4c-1.2,0-2.3,0-3.5,0.1h-0.7c-0.3,0-0.6,0-0.9,0
	c-1.9,0.1-3.5,0.2-5,0.4c-7.9,0.9-18.2,4.6-23.6,11.9c-1.2,1.6-2.1,3.4-2.7,5.2c-1.5,4.6-1.1,10-0.7,15.2
	c1.7,22.7,5.6,44.9,22.1,54.2c3,1.7,6.5,2.9,9.9,4.1c6.2,2.2,13.3,4.8,18.4,10.3c7.6,8.2,8.3,19.3,8.9,29.2
	c0.3,4.3,0.5,8.8,1.3,12.7c0.3,1.4,0.6,2.8,1.1,4.1c0.1,0.2,0.1,0.4,0.2,0.5c0.1,0.2,0.2,0.5,0.3,0.7l0.1,0.3c0.3,0.9,0.6,1.7,1,2.5
	c0.1,0.3,0.2,0.5,0.4,0.8l0.6,1.2c0.3,0.7,0.7,1.4,1.1,2.1c0.2,0.3,0.4,0.6,0.6,0.9l0.8,1.2c0.4,0.6,0.8,1.2,1.2,1.8
	c0.2,0.3,0.5,0.7,0.8,1l0.9,1.1c0.5,0.6,0.9,1.2,1.4,1.8c0.3,0.4,0.6,0.7,1,1.1l1,1.1c0.5,0.6,1,1.1,1.6,1.7
	c0.4,0.4,0.8,0.8,1.2,1.1l1.1,1c0.6,0.6,1.2,1.2,1.9,1.7c0.4,0.4,0.8,0.7,1.3,1.1c8.4-10.5,16-21.7,22.6-33.4
	c20.4-35.9,31.3-75.2,32.6-116.9l0,0c0.1-2.5,0.1-5,0.1-7.6C474.6,346.9,474.3,339.6,473.6,332.3z"/>
<path id="XMLID_235_" class="st30" d="M223.7,607.3c28.2-0.3,55.9-5.1,82.4-14.5c30.2-10.7,57.7-26.9,81.9-48.1l-62.9-99.9
	L223.7,607.3z"/>
<path id="XMLID_239_" class="st30" d="M409.2,516.5l-1.1-1c-0.5-0.5-1.1-1-1.5-1.5c-0.7-0.7-1.3-1.3-1.9-2l-0.9-1
	c-0.5-0.5-0.9-1-1.3-1.5c-0.6-0.7-1.1-1.3-1.6-2l-0.9-1.2c-0.4-0.5-0.8-1-1.1-1.5c-0.5-0.7-0.9-1.4-1.4-2.1l-0.7-1.2
	c-0.3-0.5-0.6-0.9-0.9-1.4c-0.4-0.8-0.8-1.6-1.2-2.4l-0.6-1.2c-0.2-0.5-0.5-0.9-0.7-1.4c-0.4-1-0.8-2-1.1-3l-0.3-0.9
	c-0.2-0.4-0.3-0.8-0.4-1.2c-0.5-1.7-1-3.5-1.4-5.2c-1-4.7-1.2-9.5-1.5-14.1c-0.5-9.3-1-17.3-6.1-22.8c-3.5-3.7-8.6-5.6-14.4-7.7
	c-3.8-1.4-7.7-2.8-11.4-4.8c-20.7-11.6-25.3-36.8-27.3-62.3c-0.4-5.9-0.9-12.5,1.1-19c1.7-5.5,5-10.3,9.8-14.2
	c8.6-7.1,19.3-9.3,24.9-10c0.8-0.1,1.7-0.2,2.5-0.2l0.7-0.1c5.8-0.4,11.5-0.3,17.4-0.2c6.1,0.2,12.4,0.3,18.4-0.3
	c6.7-0.7,13.5-2.5,20.1-4.3l3.3-0.9c5.4-1.4,11.3-2.8,17.3-3.6c2.5-0.3,4.7-0.5,6.9-0.5c6.2-0.1,12.5,0.7,18.6,1.6
	c0.8,0.1,1.6,0.2,2.3,0.3c-1-7.8-2.3-15.5-4-23c-1.5-6.8-3.4-13.8-5.6-20.7h-0.1l-1.5-0.4c-0.5-0.1-1-0.3-1.5-0.4
	c-0.7-0.2-1.5-0.3-2.2-0.4l-1.6-0.3c-0.5-0.1-1-0.2-1.4-0.2c-0.7-0.1-1.5-0.1-2.2-0.2L451,276c-0.5,0-0.9-0.1-1.4-0.1
	c-0.7,0-1.5,0-2.2,0h-1.7c-0.4,0-0.9,0-1.3,0c-0.8,0.1-1.5,0.2-2.3,0.3l-1.7,0.2c-0.4,0-0.8,0.1-1.2,0.2c-0.8,0.1-1.6,0.3-2.4,0.5
	l-1.6,0.4c-0.3,0.1-0.7,0.1-1,0.2c-1,0.3-1.9,0.6-2.9,0.9l-0.5,0.2c-0.3,0.1-0.6,0.2-0.8,0.3c-0.3,0.1-0.5,0.2-0.8,0.3
	c-1.6,0.6-3.2,1.3-4.8,2.1c-0.9,0.5-1.9,1-2.8,1.5c-2.9,1.6-5.5,3-8.5,4l-0.3,0.1c-0.5,0.2-1,0.4-1.6,0.5c-4.7,1.2-9.4,1-13.6,0.8
	c-1.8-0.1-3.4-0.2-5.1-0.1c-2.4,0-4.9,0.3-7.8,0.7c-4.5,0.7-9.2,1.8-13.7,2.8c-8.1,1.9-16.6,4.1-24.7,3.9
	c-6.2-0.1-11.2-1.7-15.9-4.4c-0.9-0.5-1.9-0.8-2.7-1.4c-0.5-0.3-1-0.7-1.5-1.1c-1.3-0.9-2.5-1.8-3.3-1.8l0,0c-1.7,0-3,5.8-3.6,8.5
	c-0.3,1.4-0.7,2.9-1,4.2c-1.9,6.5-6.8,12-13.3,15.5l-0.2,0.1c-0.3,0.2-0.6,0.3-1,0.4l-0.7,0.3c-0.4,0.2-0.8,0.4-1.2,0.5
	c-0.2,0.1-0.5,0.2-0.7,0.3c-1,0.4-1.7,0.6-2.5,0.8c-0.3,0.1-0.7,0.2-1.1,0.3c-0.8,0.2-1.7,0.4-2.5,0.5c-0.4,0.1-0.6,0.1-0.8,0.1
	c-1,0.1-2.1,0.2-3.1,0.2h-0.3c-0.2,0-0.4,0-0.6,0c-0.9,0-1.9-0.1-2.8-0.2c-0.3,0-0.6-0.1-1-0.1c-1.3-0.2-2.4-0.5-3.5-0.8
	c-1.4-0.4-2.9-1-4.4-1.8c-11.1-5.6-18.2-17.9-17.8-30.7c0.4-12.7,8.8-26.1,20.9-33c5-2.9,10.4-4.7,15.7-6.1
	c3.4,3.1,7.3,5.6,11.7,7.6l-1.4,0.3c-6.5,1.5-13.1,3.2-18.9,6.1c-0.7,0.3-1.3,0.7-2,1c-5.1,2.9-9.1,6.9-11.9,12
	c-2.2,3.9-3.4,8.1-3.5,12.1c-0.3,10,5.7,19.9,14.5,22.7c0.5,0.2,1.1,0.3,1.7,0.4c4.1,0.8,8.5,0,12.4-2.1c1-0.6,2-1.2,2.9-1.9
	l0.3-0.3c0.4-0.3,0.6-0.5,0.9-0.8c1.4-1.4,2.5-3,3.3-4.7c0.2-0.6,0.5-1.1,0.6-1.7c0.3-1.1,0.6-2.3,0.9-3.6c1.5-6.6,4.1-17.4,14.1-17
	c4,0.1,7,2.4,9.3,4.1c0.4,0.3,0.8,0.6,1.2,0.9c3.8,2.6,8,3.9,13.4,4c6.6,0.1,14-1.6,21.8-3.4c7.7-1.8,15.7-3.7,23.7-3.8
	c1.8,0,3.5,0,5.3,0.1h0.3c1.2,0.1,2.5,0.1,3.7,0.1c2.1,0,4.6,0,6.9-0.6c0.8-0.2,1.7-0.5,2.9-1c1.7-0.7,3.4-1.7,5.1-2.6
	c1.2-0.6,2.2-1.2,3.2-1.7c1.6-0.8,3.3-1.6,5.2-2.3l0.3-0.1c1.6-0.6,3.3-1.2,5.2-1.7l0.6-0.2c1.6-0.5,3.3-0.8,5.1-1.2l0.8-0.2
	c1.6-0.3,3.3-0.5,5.1-0.7l0.9-0.1c1.7-0.1,3.4-0.2,5.1-0.2h0.9c1.7,0,3.5,0.1,5.2,0.2l0.6,0.1c1.7,0.2,3.2,0.4,4.7,0.6
	C444.7,226,419.8,190,387,161.8c-0.1,0-0.1,0.1-0.2,0.1c-2.3,1.7-4.7,3.7-5.3,5.8c-0.8,2.7,1.1,6.2,3,10.2
	c2.6,5.3,5.6,11.3,3.4,17.9c-0.4,1.2-1,2.4-1.7,3.5c-0.4,0.5-0.7,1-1.1,1.5c-2.9,3.4-7.4,5-11.5,5.8c-0.4-3.4-1.2-6.7-2.3-9.9
	c2.8-0.6,5.1-1.4,6.2-3c0.2-0.3,0.4-0.7,0.6-1.1c0.9-2.7-0.8-6.2-2.8-10.2c-2.5-5.2-5.4-11-3.5-17.6c0.2-0.7,0.4-1.3,0.7-1.9
	c0.9-2.1,2.3-4,4.3-5.9l0.4-0.3c0.6-0.5,1.2-1.1,1.8-1.6c-12.6-10-26.1-18.7-40.2-26.1c-8-4.2-16.3-8-24.8-11.3
	c-0.3,0.4-0.5,0.8-0.8,1.1c-0.4,0.6-0.7,0.9-1,1.3c-0.4,0.5-0.7,0.9-1.1,1.3l-0.2,0.3c-0.3,0.3-0.5,0.6-0.8,0.9
	c-0.4,0.4-0.8,0.8-1.1,1.1l-0.4,0.4c-0.3,0.3-0.5,0.5-0.8,0.8c-0.4,0.4-0.8,0.7-1.3,1.1l-0.5,0.4c-0.3,0.2-0.5,0.4-0.8,0.6
	c-0.5,0.4-1,0.7-1.5,1l-0.5,0.4c-0.3,0.2-0.5,0.4-0.8,0.5c-0.6,0.4-1.2,0.7-1.8,1.1l-0.4,0.2c-0.2,0.1-0.4,0.3-0.7,0.4
	c-1,0.5-2,1-3,1.4c-2.8,1.1-5.6,2.3-8.4,3.1c-5.8,1.7-10.7,3-13.6,6.6c-1,1.2-1.8,2.7-2.6,4.5l-1.2,2.4c-2.7,6-6,11.8-9.7,17.3
	c-1.2,1.8-2.4,3.8-3.8,5.5c-0.9,1.2-2,2.7-3.6,3.8c-0.6,0.4-1.2,0.8-1.8,1.1c-0.7,0.4-1.5,0.6-2.3,0.8c-0.3,0.1-0.6,0.1-0.9,0.1
	c-0.5,0.1-0.8,0.1-1.2,0.1H247c-0.6,0-1.3-0.1-1.9-0.2l-0.4-0.1c-0.5-0.1-1-0.2-1.5-0.4l-0.5-0.2c-0.5-0.2-1.1-0.4-1.6-0.7
	c-0.7-0.4-1.2-0.7-1.8-1l-0.3-0.2c-0.5-0.3-0.8-0.6-1.2-0.9l-0.4-0.4c-0.4-0.3-1-0.9-1.3-1.2l-0.2-0.2c-6.5-7-7.2-15.8-7.2-24.4
	c0-1.9,0-3.8,0.1-5.7c0.1-3.3,0.2-6.7,0-9.8c-0.1-1.5-0.3-3.1-0.5-4.6c0-0.3-0.1-0.6-0.2-0.8l-0.3-1.4c-0.2-0.8-0.3-1.6-0.5-2.3
	c-0.1-0.4-0.2-0.7-0.3-1.1l-0.5-1.5c-0.2-0.6-0.3-1.2-0.5-1.8c-0.1-0.4-0.3-0.8-0.5-1.2l-0.6-1.5c-0.2-0.6-0.4-1.1-0.6-1.6
	c-0.2-0.4-0.4-0.9-0.6-1.3l-0.6-1.3c-0.2-0.5-0.5-1-0.7-1.5s-0.5-1-0.7-1.4l-0.6-1.2c-0.2-0.5-0.5-1-0.7-1.4c-0.3-0.5-0.5-1-0.8-1.4
	l-0.7-1.2c-0.3-0.4-0.5-0.9-0.8-1.3c-0.3-0.5-0.6-1-0.9-1.6v-0.1c-13.6,0.2-27.2,1.6-40.4,4l10.4,20.6c2.1,4.1,4,8.5,2.7,13.5
	c-1.5,6.3-7.4,9.6-10.6,11.4l-1.9,1.1c-10.6,6-21.6,12.2-29.7,20.9c-7.1,7.6-13.7,20-10.7,32c0.9,3.9,2.9,7.8,4.8,11.6
	c2.4,4.9,5,10,6,15.8c3.1,18-9.8,33.4-17.8,41c-3.5,3.3-7.2,6.4-10.9,9.4c-6.8,5.6-13.7,11.4-18.7,18.3c-2.7,3.8-4.7,8.4-5.7,13.1
	c-1,4.5-1.7,12.9,3.8,18.9c2.4,2.6,6,4.7,9.4,6.7c5,2.9,10.6,6.1,14.1,11.7c0.9,1.3,1.5,2.7,2.1,4.1l15.8-24.4l34.8,53.3
	c0.2,0,0.5-0.1,0.7-0.1c2-0.3,4.1-0.6,6.1-0.9c19.6-2.8,39.8-5.7,56,6.2c1.2,0.9,2.3,1.8,3.4,2.8c1.8,1.5,3.3,2.7,5,3.7
	c3.9,2.2,9.3,2.7,14.5,3.3c8.5,0.9,18.2,1.9,23.9,10.2c7.5,10.9,1.1,25.6-9.1,34.4c-2.3,2-4.8,3.9-7,5.6
	c-6.2,4.7-11.5,8.8-14.1,14.6c-3.4,7.6-1.4,16.1,0.9,26c1.6,7,3.3,14.2,2.9,21.5l7.3,11.1l60.4-96.7l70.6,112
	c5.4-5.2,10.6-10.5,15.5-16c0.6-0.7,1.1-1.3,1.7-2c-0.5-0.4-1.1-0.9-1.6-1.3C410.5,517.7,409.8,517.1,409.2,516.5z"/>
<path id="XMLID_9_" class="st30" d="M79.4,371.9c-4.5-1.6-9.6-2.2-14.5-2.9c-2.8-0.4-5.6-0.7-8.4-1.3c-17.3-3.2-33.3-12.4-44.9-25.6
	c-1.1,9.4,4,21.5,15.7,36.6l6.7,8.7L23,387c-24-1-30-23.5-35.2-43.3l-0.6-2.1c-0.7-2.8-1.5-5.6-2.3-8.3c-1.9-6.5-3.8-13.3-4.9-19.9
	c-2.3-13.1-1-23.8,4.1-33.5l0.4-0.8c2-3.7,3.8-7.2,3.5-10.4c-0.2-2-1.3-3.8-3.3-5.6c-6.2,16.2-10.8,33.1-13.5,50.2
	c-2.2,13.4-3.2,27-3.2,40.6c0,56.9,19.3,112.4,54.5,157l78.4-121C94.6,380.6,87.7,374.8,79.4,371.9z"/>
<path id="XMLID_242_" class="st30" d="M139.4,349.3l-110,169.9c46,53.4,112.2,85.3,182.4,87.9l47-75.2L139.4,349.3z"/>
<path id="XMLID_243_" class="st30" d="M261.5,441c2.2-1.7,4.5-3.4,6.5-5.2c6.6-5.8,11.5-15.1,7.4-21c-3-4.4-9.3-5.1-16.5-5.8
	c-6.2-0.7-12.7-1.3-18.4-4.5c-2.5-1.4-4.6-3.2-6.5-4.7c-1-0.8-2-1.6-3-2.4c-12.9-9.4-31-6.8-48.5-4.3c-0.7,0.1-1.4,0.2-2.1,0.3
	l64,97.9c-2.3-10-4.7-21.2-0.1-31.7C248,451.4,255.2,445.9,261.5,441z"/>
<path id="XMLID_283_" class="st30" d="M230.4,104.5c0.3,0.7,0.7,1.4,1,2.1c0.4,0.8,0.7,1.6,1.1,2.4l0.3,0.6c0.3,0.6,0.5,1.1,0.7,1.7
	c0.3,0.8,0.6,1.6,0.9,2.5l0.3,0.8c0.2,0.5,0.4,1.1,0.6,1.6c0.3,0.9,0.5,1.7,0.8,2.6l0.3,1c0.1,0.5,0.3,1,0.4,1.5
	c0.3,1.1,0.5,2.2,0.7,3.3l0.2,0.8c0.1,0.4,0.2,0.8,0.2,1.2c0.3,1.9,0.5,3.7,0.6,5.5c0.2,3.6,0.1,7.2,0,10.7
	c-0.2,9.4-0.4,17.6,4.6,23c1.4,1.5,3.2,2.1,3.7,1.9c0.1,0,0.3-0.2,0.6-0.5c0.4-0.4,0.8-0.9,1.2-1.4c4.8-6.5,9-13.5,12.4-20.9
	l0.4-0.9c0.6-1.4,1.2-2.7,2-4.1l0.2-0.4c0.9-1.6,1.7-2.8,2.6-3.9c4.5-5.4,10.8-7.6,16.3-9.3l2.2-0.6c2.7-0.8,5.3-1.5,7.6-2.5
	c0.7-0.3,1.5-0.6,2.2-1l0.7-0.4c0.5-0.3,1-0.5,1.4-0.8c0.2-0.1,0.3-0.2,0.4-0.3l0.4-0.2c0.5-0.3,0.8-0.6,1.2-0.9
	c0.2-0.1,0.4-0.3,0.6-0.4l0.3-0.2c0.4-0.3,0.8-0.6,1.1-0.9c0.2-0.2,0.4-0.4,0.6-0.5l0.2-0.2c0.3-0.3,0.7-0.7,1-1
	c0.2-0.2,0.4-0.5,0.6-0.7c0.3-0.4,0.6-0.7,0.9-1c-24.2-8.3-49.5-12.9-75.2-13.6c0.2,0.4,0.5,0.8,0.7,1.3
	C229.5,102.9,229.9,103.7,230.4,104.5z"/>
<path id="XMLID_285_" class="st30" d="M473.6,332.3c-1.5-0.2-3.1-0.4-4.6-0.6h-0.3c-5.6-0.8-11.5-1.6-16.9-1.5
	c-1.9,0-3.9,0.2-6.2,0.5c-1.4,0.2-2.9,0.4-4.3,0.7c-5,0.9-10.1,2.3-14.6,3.5c-7,1.9-14.2,3.8-21.6,4.6c-0.4,0-0.7,0.1-1.1,0.1h-0.6
	c-5.9,0.5-11.8,0.4-17.4,0.2h-0.7c-2.5-0.1-5-0.1-7.5-0.1h-1.4c-1.2,0-2.3,0-3.5,0.1h-0.7c-0.3,0-0.6,0-0.9,0
	c-1.9,0.1-3.5,0.2-5,0.4c-7.9,0.9-18.2,4.6-23.6,11.9c-1.2,1.6-2.1,3.4-2.7,5.2c-1.5,4.6-1.1,10-0.7,15.2
	c1.7,22.7,5.6,44.9,22.1,54.2c3,1.7,6.5,2.9,9.9,4.1c6.2,2.2,13.3,4.8,18.4,10.3c7.6,8.2,8.3,19.3,8.9,29.2
	c0.3,4.3,0.5,8.8,1.3,12.7c0.3,1.4,0.6,2.8,1.1,4.1c0.1,0.2,0.1,0.4,0.2,0.5c0.1,0.2,0.2,0.5,0.3,0.7l0.1,0.3c0.3,0.9,0.6,1.7,1,2.5
	c0.1,0.3,0.2,0.5,0.4,0.8l0.6,1.2c0.3,0.7,0.7,1.4,1.1,2.1c0.2,0.3,0.4,0.6,0.6,0.9l0.8,1.2c0.4,0.6,0.8,1.2,1.2,1.8
	c0.2,0.3,0.5,0.7,0.8,1l0.9,1.1c0.5,0.6,0.9,1.2,1.4,1.8c0.3,0.4,0.6,0.7,1,1.1l1,1.1c0.5,0.6,1,1.1,1.6,1.7
	c0.4,0.4,0.8,0.8,1.2,1.1l1.1,1c0.6,0.6,1.2,1.2,1.9,1.7c0.4,0.4,0.8,0.7,1.3,1.1c8.4-10.5,16-21.7,22.6-33.4
	c20.4-35.9,31.3-75.2,32.6-116.9l0,0c0.1-2.5,0.1-5,0.1-7.6C474.6,346.9,474.3,339.6,473.6,332.3z"/>
<path id="XMLID_286_" class="st30" d="M409.2,516.5l-1.1-1c-0.5-0.5-1.1-1-1.5-1.5c-0.7-0.7-1.3-1.3-1.9-2l-0.9-1
	c-0.5-0.5-0.9-1-1.3-1.5c-0.6-0.7-1.1-1.3-1.6-2l-0.9-1.2c-0.4-0.5-0.8-1-1.1-1.5c-0.5-0.7-0.9-1.4-1.4-2.1l-0.7-1.2
	c-0.3-0.5-0.6-0.9-0.9-1.4c-0.4-0.8-0.8-1.6-1.2-2.4l-0.6-1.2c-0.2-0.5-0.5-0.9-0.7-1.4c-0.4-1-0.8-2-1.1-3l-0.3-0.9
	c-0.2-0.4-0.3-0.8-0.4-1.2c-0.5-1.7-1-3.5-1.4-5.2c-1-4.7-1.2-9.5-1.5-14.1c-0.5-9.3-1-17.3-6.1-22.8c-3.5-3.7-8.6-5.6-14.4-7.7
	c-3.8-1.4-7.7-2.8-11.4-4.8c-20.7-11.6-25.3-36.8-27.3-62.3c-0.4-5.9-0.9-12.5,1.1-19c1.7-5.5,5-10.3,9.8-14.2
	c8.6-7.1,19.3-9.3,24.9-10c0.8-0.1,1.7-0.2,2.5-0.2l0.7-0.1c5.8-0.4,11.5-0.3,17.4-0.2c6.1,0.2,12.4,0.3,18.4-0.3
	c6.7-0.7,13.5-2.5,20.1-4.3l3.3-0.9c5.4-1.4,11.3-2.8,17.3-3.6c2.5-0.3,4.7-0.5,6.9-0.5c6.2-0.1,12.5,0.7,18.6,1.6
	c0.8,0.1,1.6,0.2,2.3,0.3c-1-7.8-2.3-15.5-4-23c-1.5-6.8-3.4-13.8-5.6-20.7h-0.1l-1.5-0.4c-0.5-0.1-1-0.3-1.5-0.4
	c-0.7-0.2-1.5-0.3-2.2-0.4l-1.6-0.3c-0.5-0.1-1-0.2-1.4-0.2c-0.7-0.1-1.5-0.1-2.2-0.2L451,276c-0.5,0-0.9-0.1-1.4-0.1
	c-0.7,0-1.5,0-2.2,0h-1.7c-0.4,0-0.9,0-1.3,0c-0.8,0.1-1.5,0.2-2.3,0.3l-1.7,0.2c-0.4,0-0.8,0.1-1.2,0.2c-0.8,0.1-1.6,0.3-2.4,0.5
	l-1.6,0.4c-0.3,0.1-0.7,0.1-1,0.2c-1,0.3-1.9,0.6-2.9,0.9l-0.5,0.2c-0.3,0.1-0.6,0.2-0.8,0.3c-0.3,0.1-0.5,0.2-0.8,0.3
	c-1.6,0.6-3.2,1.3-4.8,2.1c-0.9,0.5-1.9,1-2.8,1.5c-2.9,1.6-5.5,3-8.5,4l-0.3,0.1c-0.5,0.2-1,0.4-1.6,0.5c-4.7,1.2-9.4,1-13.6,0.8
	c-1.8-0.1-3.4-0.2-5.1-0.1c-2.4,0-4.9,0.3-7.8,0.7c-4.5,0.7-9.2,1.8-13.7,2.8c-8.1,1.9-16.6,4.1-24.7,3.9
	c-6.2-0.1-11.2-1.7-15.9-4.4c-0.9-0.5-1.9-0.8-2.7-1.4c-0.5-0.3-1-0.7-1.5-1.1c-1.3-0.9-2.5-1.8-3.3-1.8l0,0c-1.7,0-3,5.8-3.6,8.5
	c-0.3,1.4-0.7,2.9-1,4.2c-1.9,6.5-6.8,12-13.3,15.5l-0.2,0.1c-0.3,0.2-0.6,0.3-1,0.4l-0.7,0.3c-0.4,0.2-0.8,0.4-1.2,0.5
	c-0.2,0.1-0.5,0.2-0.7,0.3c-1,0.4-1.7,0.6-2.5,0.8c-0.3,0.1-0.7,0.2-1.1,0.3c-0.8,0.2-1.7,0.4-2.5,0.5c-0.4,0.1-0.6,0.1-0.8,0.1
	c-1,0.1-2.1,0.2-3.1,0.2h-0.3c-0.2,0-0.4,0-0.6,0c-0.9,0-1.9-0.1-2.8-0.2c-0.3,0-0.6-0.1-1-0.1c-1.3-0.2-2.4-0.5-3.5-0.8
	c-1.4-0.4-2.9-1-4.4-1.8c-11.1-5.6-18.2-17.9-17.8-30.7c0.4-12.7,8.8-26.1,20.9-33c5-2.9,10.4-4.7,15.7-6.1
	c3.4,3.1,7.3,5.6,11.7,7.6l-1.4,0.3c-6.5,1.5-13.1,3.2-18.9,6.1c-0.7,0.3-1.3,0.7-2,1c-5.1,2.9-9.1,6.9-11.9,12
	c-2.2,3.9-3.4,8.1-3.5,12.1c-0.3,10,5.7,19.9,14.5,22.7c0.5,0.2,1.1,0.3,1.7,0.4c4.1,0.8,8.5,0,12.4-2.1c1-0.6,2-1.2,2.9-1.9
	l0.3-0.3c0.4-0.3,0.6-0.5,0.9-0.8c1.4-1.4,2.5-3,3.3-4.7c0.2-0.6,0.5-1.1,0.6-1.7c0.3-1.1,0.6-2.3,0.9-3.6c1.5-6.6,4.1-17.4,14.1-17
	c4,0.1,7,2.4,9.3,4.1c0.4,0.3,0.8,0.6,1.2,0.9c3.8,2.6,8,3.9,13.4,4c6.6,0.1,14-1.6,21.8-3.4c7.7-1.8,15.7-3.7,23.7-3.8
	c1.8,0,3.5,0,5.3,0.1h0.3c1.2,0.1,2.5,0.1,3.7,0.1c2.1,0,4.6,0,6.9-0.6c0.8-0.2,1.7-0.5,2.9-1c1.7-0.7,3.4-1.7,5.1-2.6
	c1.2-0.6,2.2-1.2,3.2-1.7c1.6-0.8,3.3-1.6,5.2-2.3l0.3-0.1c1.6-0.6,3.3-1.2,5.2-1.7l0.6-0.2c1.6-0.5,3.3-0.8,5.1-1.2l0.8-0.2
	c1.6-0.3,3.3-0.5,5.1-0.7l0.9-0.1c1.7-0.1,3.4-0.2,5.1-0.2h0.9c1.7,0,3.5,0.1,5.2,0.2l0.6,0.1c1.7,0.2,3.2,0.4,4.7,0.6
	C444.7,226,419.8,190,387,161.8c-0.1,0-0.1,0.1-0.2,0.1c-2.3,1.7-4.7,3.7-5.3,5.8c-0.8,2.7,1.1,6.2,3,10.2
	c2.6,5.3,5.6,11.3,3.4,17.9c-0.4,1.2-1,2.4-1.7,3.5c-0.4,0.5-0.7,1-1.1,1.5c-2.9,3.4-7.4,5-11.5,5.8c-0.4-3.4-1.2-6.7-2.3-9.9
	c2.8-0.6,5.1-1.4,6.2-3c0.2-0.3,0.4-0.7,0.6-1.1c0.9-2.7-0.8-6.2-2.8-10.2c-2.5-5.2-5.4-11-3.5-17.6c0.2-0.7,0.4-1.3,0.7-1.9
	c0.9-2.1,2.3-4,4.3-5.9l0.4-0.3c0.6-0.5,1.2-1.1,1.8-1.6c-12.6-10-26.1-18.7-40.2-26.1c-8-4.2-16.3-8-24.8-11.3
	c-0.3,0.4-0.5,0.8-0.8,1.1c-0.4,0.6-0.7,0.9-1,1.3c-0.4,0.5-0.7,0.9-1.1,1.3l-0.2,0.3c-0.3,0.3-0.5,0.6-0.8,0.9
	c-0.4,0.4-0.8,0.8-1.1,1.1l-0.4,0.4c-0.3,0.3-0.5,0.5-0.8,0.8c-0.4,0.4-0.8,0.7-1.3,1.1l-0.5,0.4c-0.3,0.2-0.5,0.4-0.8,0.6
	c-0.5,0.4-1,0.7-1.5,1l-0.5,0.4c-0.3,0.2-0.5,0.4-0.8,0.5c-0.6,0.4-1.2,0.7-1.8,1.1l-0.4,0.2c-0.2,0.1-0.4,0.3-0.7,0.4
	c-1,0.5-2,1-3,1.4c-2.8,1.1-5.6,2.3-8.4,3.1c-5.8,1.7-10.7,3-13.6,6.6c-1,1.2-1.8,2.7-2.6,4.5l-1.2,2.4c-2.7,6-5.9,11.9-9.6,17.4
	c-1.2,1.8-2.5,3.7-3.8,5.4c-0.9,1.2-2,2.7-3.6,3.8c-0.6,0.4-1.2,0.8-1.8,1.1c-0.7,0.4-1.5,0.6-2.3,0.8c-0.3,0.1-0.6,0.1-0.9,0.1
	c-0.5,0.1-0.8,0.1-1.2,0.1h-0.4c-0.6,0-1.3-0.1-1.9-0.2l-0.4-0.1c-0.5-0.1-1-0.2-1.5-0.4l-0.5-0.2c-0.5-0.2-1.1-0.4-1.6-0.7
	c-0.7-0.4-1.2-0.7-1.8-1l-0.3-0.2c-0.5-0.3-0.8-0.6-1.2-0.9l-0.4-0.4c-0.4-0.3-1-0.9-1.3-1.2l-0.2-0.2c-6.5-7-7.2-15.8-7.2-24.4
	c0-1.9,0-3.8,0.1-5.7c0.1-3.3,0.2-6.7,0-9.8c-0.1-1.5-0.3-3.1-0.5-4.6c0-0.3-0.1-0.6-0.2-0.8l-0.3-1.4c-0.2-0.8-0.3-1.6-0.5-2.3
	c-0.1-0.4-0.2-0.7-0.3-1.1l-0.5-1.5c-0.2-0.6-0.3-1.2-0.5-1.8c-0.1-0.4-0.3-0.8-0.5-1.2l-0.6-1.5c-0.2-0.6-0.4-1.1-0.6-1.6
	c-0.2-0.4-0.4-0.9-0.6-1.3l-0.6-1.3c-0.2-0.5-0.5-1-0.7-1.5s-0.5-1-0.7-1.4l-0.6-1.2c-0.2-0.5-0.5-1-0.7-1.4c-0.3-0.5-0.5-1-0.8-1.4
	l-0.7-1.2c-0.3-0.4-0.5-0.9-0.8-1.3c-0.3-0.5-0.6-1-0.9-1.6v-0.1c-13.6,0.2-27.2,1.6-40.4,4l10.4,20.6c2.1,4.1,4,8.5,2.7,13.5
	c-1.5,6.3-7.4,9.6-10.6,11.4l-1.9,1.1c-10.6,6-21.6,12.2-29.7,20.9c-7.1,7.6-13.7,20-10.7,32c0.9,3.9,2.9,7.8,4.8,11.6
	c2.4,4.9,5,10,6,15.8c3.1,18-9.8,33.4-17.8,41c-3.5,3.3-7.2,6.4-10.9,9.4c-6.8,5.6-13.7,11.4-18.7,18.3c-2.7,3.8-4.7,8.4-5.7,13.1
	c-1,4.5-1.7,12.9,3.8,18.9c2.4,2.6,6,4.7,9.4,6.7c5,2.9,10.6,6.1,14.1,11.7c0.9,1.3,1.5,2.7,2.1,4.1l15.8-24.4l34.8,53.3
	c0.2,0,0.5-0.1,0.7-0.1c2-0.3,4.1-0.6,6.1-0.9c19.6-2.8,39.8-5.7,56,6.2c1.2,0.9,2.3,1.8,3.4,2.8c1.8,1.5,3.3,2.7,5,3.7
	c3.9,2.2,9.3,2.7,14.5,3.3c8.5,0.9,18.2,1.9,23.9,10.2c7.5,10.9,1.1,25.6-9.1,34.4c-2.3,2-4.8,3.9-7,5.6
	c-6.2,4.7-11.5,8.8-14.1,14.6c-3.4,7.6-1.4,16.1,0.9,26c1.6,7,3.3,14.2,2.9,21.5l7.3,11.1l60.4-96.7l70.6,112
	c5.4-5.2,10.6-10.5,15.5-16c0.6-0.7,1.1-1.3,1.7-2c-0.5-0.4-1.1-0.9-1.6-1.3C410.5,517.7,409.8,517.1,409.2,516.5z"/>
<path id="XMLID_287_" class="st30" d="M223.7,607.3c28.2-0.3,55.9-5.1,82.4-14.5c30.2-10.7,57.7-26.9,81.9-48.1l-62.9-99.9
	L223.7,607.3z"/>
<path id="XMLID_158_" class="st30" d="M126.3,206.2c1.2,5,3.4,9.4,5.5,13.7c2.2,4.4,4.3,8.6,5,13c2.3,13.4-8.3,25.7-14.8,31.9
	c-3.3,3.1-6.9,6.1-10.4,9c-7.2,6-14.7,12.2-20.4,20.2c-3.7,5.2-6.3,11.2-7.6,17.4c-0.7,3.5-0.9,6.9-0.7,10.1l63.7-85.5L131,176.1
	C125.8,186,123.9,196.6,126.3,206.2z"/>
<linearGradient id="XMLID_48_" gradientUnits="userSpaceOnUse" x1="147.9199" y1="364.5047" x2="-22.613" y2="344.442" gradientTransform="matrix(1 0 0 -1 0 712.1799)">
	<stop  offset="0" style="stop-color:#6DED79"/>
	<stop  offset="1" style="stop-color:#77FF00"/>
</linearGradient>
<path id="XMLID_236_" class="st31" d="M8.8,369.2c-1.9-3.3-3.4-6.5-4.5-9.6H3.4C4.8,363.3,6.6,366.6,8.8,369.2z"/>
<linearGradient id="XMLID_49_" gradientUnits="userSpaceOnUse" x1="186.8015" y1="474.8554" x2="-42.4138" y2="447.8889" gradientTransform="matrix(1 0 0 -1 0 712.1799)">
	<stop  offset="0" style="stop-color:#6DED79"/>
	<stop  offset="1" style="stop-color:#77FF00"/>
</linearGradient>
<path id="XMLID_2_" class="st32" d="M179,133.5c-0.4-1.3-1-2.7-1.7-4.1l-11.6-23.1c-16.9,3.8-33.1,9.2-48.6,16.1
	c-21.7,9.8-41.8,22.5-59.9,37.8c-29.3,24.8-53,56.4-68.7,92.6c5.7,4,8.9,8.9,9.5,14.4c0.2,1.5,0.1,3-0.1,4.4l0.2,0.2l-0.5,1.4
	c-0.4,1.7-1,3.4-1.6,5l-7,21.4c-0.1,1.9,0,3.9,0.2,5.9l1.8,8.3l2.7,12.6l0.1,0.5c0.3,1,0.6,2.1,0.9,3.1c0.8,2.9,1.6,5.7,2.4,8.5
	l0.6,2.1c0,0.1,0.1,0.2,0.1,0.4c1.8,6.8,3.5,13.1,5.7,18.6h0.9c-4.6-12-4.2-22.2,1.2-31l4.1-6.7l4.4,6.5
	c10,14.6,25.6,24.9,42.9,28.5c0.5,0.1,0.9,0.2,1.4,0.3c2.6,0.5,5.3,0.8,7.9,1.2c5.4,0.7,11,1.4,16.5,3.4c9.4,3.3,17.1,9.2,24.2,18.5
	l9.5-14.6c-0.1-0.5-0.3-1-0.4-1.4c-0.9-3.3-1.6-6.1-3.1-8.4c-2.2-3.5-6.1-5.8-10.7-8.4c-4.1-2.4-8.3-4.8-11.8-8.6
	c-4.3-4.6-6.7-10.6-7.2-17.3c-0.2-3.2,0-6.6,0.7-10.1c1.2-6.2,3.9-12.2,7.6-17.4c5.7-8,13.2-14.2,20.4-20.2c3.5-2.9,7.1-5.9,10.4-9
	c6.5-6.2,17.1-18.5,14.8-31.9c-0.8-4.4-2.8-8.5-5-13c-2.1-4.3-4.3-8.7-5.5-13.7c-2.3-9.6-0.5-20.2,4.9-30c2.2-4,5-7.8,8.3-11.4
	c9.2-9.8,20.8-16.4,32.1-22.8l1.9-1.1c2.5-1.4,5.3-3.2,5.8-5C179.4,135.2,179.3,134.4,179,133.5z"/>
<g id="XMLID_1_">
	<g>
		<defs>
			<path id="SVGID_1_" d="M171,106.8l4.3,5.9l10.2,26.3l-28.6,15.7l-25.6,35l7.7,62.8l-50.9,52.9c-2.5,52.2,92.3,67.5-20.6,81.5
				l-99.5-4v-3.7C-32,229.4,47.3,134.8,171,106.8z"/>
		</defs>
		<clipPath id="SVGID_2_">
			<use xlink:href="#SVGID_1_"  style="overflow:visible;"/>
		</clipPath>
		<g class="st33">
			
				<image style="overflow:visible;enable-background:new    ;" width="446" height="452" id="XMLID_288_" xlink:href="8A03488F.png"  transform="matrix(0.6082 0 0 0.6082 -58.8464 107.964)">
			</image>
		</g>
	</g>
</g>
<path id="XMLID_226_" class="st25" d="M179,133.5c-0.4-1.3-1-2.7-1.7-4.1l-11.6-23.1C86.6,123.9,20.8,178.4-11.5,252.8
	c5.7,4,8.9,8.9,9.5,14.4c0.2,1.5,0.1,3-0.1,4.4l0.2,0.2l-0.5,1.4c-0.4,1.7-1,3.4-1.6,5l-7,21.4c-0.1,1.9,0,3.9,0.2,5.9l4.5,20.9
	l0.1,0.5c0.3,1,0.6,2.1,0.9,3.1c0.8,2.9,1.6,5.7,2.4,8.5l0.6,2.1c0,0.1,0.1,0.2,0.1,0.4C23.7,174.7,163.6,137.1,179,133.5z"/>
<path class="st30" d="M-2.4,266.9c0.7,6.2-2.2,11.8-4.6,16.2l-0.4,0.8c-4,7.8-5,16.2-3,27.4c1,5.9,2.8,12,4.6,18.4
	c0.8,2.8,1.6,5.7,2.4,8.5l0.6,2.1c3.1,11.5,5.9,22,11.3,28.6c-9.1-16.2-10.2-29.6-3.4-40.6l4.1-6.7l4.4,6.5
	c10.3,14.9,26.5,25.4,44.3,28.8c2.6,0.5,5.3,0.9,7.9,1.2c5.4,0.8,11,1.5,16.5,3.4c9.4,3.3,17.2,9.2,24.2,18.5l9.5-14.6
	c-0.1-0.4-0.3-0.9-0.4-1.4c-0.9-3.3-1.6-6.1-3.1-8.4c-2.3-3.5-6.2-5.8-10.7-8.4c-4.1-2.4-8.3-4.8-11.8-8.6
	c-6.4-6.9-8.7-16.6-6.5-27.4c1.3-6.2,3.9-12.2,7.6-17.4c5.7-8,13.2-14.2,20.4-20.2c3.5-2.9,7.1-5.9,10.4-9
	c6.5-6.2,17.1-18.5,14.8-31.9c-0.7-4.4-2.8-8.6-5-13c-2.1-4.3-4.3-8.7-5.5-13.7c-3.3-13.6,1.7-29,13.2-41.4
	c9.2-9.8,20.8-16.4,32.1-22.8l1.9-1.1c2.6-1.4,5.3-3.1,5.8-5c0.4-1.6-0.8-4.1-2-6.5l-11.6-23.1c-79,17.6-144.9,72.1-177.5,146.4
	C-6.2,256.5-3,261.4-2.4,266.9z"/>
<path class="st30" d="M79.1,371.5c-4.5-1.6-9.6-2.3-14.5-2.9c-2.8-0.4-5.6-0.8-8.4-1.3C39,364,23,354.8,11.3,341.7
	c-1.2,9.4,4,21.5,15.7,36.6l6.7,8.7l-10.9-0.5c-24-1-29.9-23.5-35.2-43.3l-0.6-2.1c-0.7-2.8-1.5-5.5-2.3-8.3
	c-1.8-6.5-3.8-13.3-4.9-19.9c-2.3-13.2-1-23.8,4.1-33.5l0.4-0.8c2-3.8,3.8-7.3,3.5-10.4c-0.2-1.9-1.3-3.8-3.3-5.6
	c-6.2,16.2-10.7,33.1-13.5,50.2c-2.1,13.4-3.2,27-3.2,40.6c0,56.9,19.3,112.4,54.5,157.2l78.4-121C94.3,380.2,87.4,374.4,79.1,371.5
	z"/>
<path class="st30" d="M139.2,348.7L29.1,518.6C75,572,141.3,603.9,211.5,606.5l47-75.2L139.2,348.7z"/>
<path class="st30" d="M230,103.5c0.3,0.7,0.7,1.4,1,2.1c0.4,0.8,0.7,1.6,1.1,2.4l0.3,0.6c0.2,0.6,0.5,1.1,0.7,1.7
	c0.3,0.9,0.6,1.7,0.9,2.5l0.3,0.8c0.2,0.5,0.4,1.1,0.6,1.6c0.3,0.8,0.5,1.7,0.8,2.6l0.3,1c0.1,0.5,0.3,1,0.4,1.5
	c0.3,1.1,0.5,2.2,0.7,3.3l0.2,0.8c0,0.4,0.1,0.8,0.2,1.2c0.3,1.9,0.5,3.7,0.6,5.5c0.2,3.5,0.1,7.2,0,10.7c-0.1,4.4-0.3,8.9,0.3,13.2
	c0.4,2.2,0.9,4.3,1.8,6.2c1,2.1,2.4,4.1,4.5,5.2c0.3,0.1,0.6,0.3,1,0.3c0.6,0,1.1-0.2,1.5-0.6c0.5-0.5,0.9-1.1,1.3-1.7
	c0.5-0.7,0.9-1.3,1.4-2c1-1.4,2-2.8,2.9-4.3c2.9-4.5,5.5-9.2,7.7-14.1l0.4-0.9c0.7-1.4,1.3-2.8,2-4.1l0.2-0.4
	c0.9-1.6,1.7-2.8,2.6-3.9c4.4-5.4,10.7-7.6,16.3-9.3l2.2-0.6c2.7-0.8,5.3-1.6,7.6-2.5c0.8-0.3,1.5-0.6,2.2-1l0.7-0.4
	c0.5-0.3,1-0.5,1.4-0.8c0.1-0.1,0.3-0.2,0.4-0.3l0.4-0.2c0.5-0.4,0.8-0.6,1.2-0.9c0.2-0.1,0.4-0.2,0.6-0.4l0.3-0.2
	c0.4-0.3,0.8-0.6,1.1-0.9c0.2-0.1,0.4-0.3,0.6-0.5l0.2-0.2c0.3-0.3,0.7-0.7,1-1c0.2-0.2,0.4-0.5,0.6-0.7c0.4-0.4,0.7-0.7,0.9-1
	c-24.3-8.4-49.5-12.9-75.3-14c0.2,0.4,0.5,0.9,0.7,1.3C229.2,101.9,229.6,102.7,230,103.5z"/>
<path class="st30" d="M386.9,195.7c-0.5,1.3-1,2.5-1.7,3.5c-0.3,0.5-0.7,1-1.1,1.5c-1.7,1.9-3.8,3.2-6.2,4.2
	c0.2,1.2,0.3,2.4,0.4,3.6c0.9,13.6-3.6,26.7-12.6,36.9c-9,10.2-21.4,16.3-35,17.2c-1.1,0-2.2,0.1-3.3,0.1c-9.4,0-18.4-2.5-26.4-7.4
	c-4.5,1.2-9.2,2.5-13.2,4.6c-0.7,0.3-1.4,0.6-2,1c-5.1,2.9-9.1,6.9-11.9,12c-2.1,3.8-3.4,8-3.5,12.1c-0.4,10.1,5.6,20,14.5,22.7
	c0.6,0.2,1.1,0.3,1.7,0.4c4.1,0.8,8.5,0,12.4-2.1c1.1-0.6,2-1.2,2.9-1.9l0.3-0.3c0.4-0.3,0.6-0.5,0.9-0.8c1.4-1.4,2.5-3,3.3-4.7
	c0.2-0.6,0.4-1.1,0.6-1.7c0.3-1.1,0.6-2.4,0.9-3.6c1.5-6.5,4.1-17.4,14.1-17c4,0.2,7.1,2.4,9.3,4.1c0.4,0.3,0.8,0.6,1.2,0.9
	c3.8,2.6,8,3.9,13.4,4c6.7,0.1,14-1.6,21.8-3.4c7.8-1.8,15.8-3.7,23.7-3.8c1.7-0.1,3.5,0,5.3,0.1h0.3c1.3,0,2.5,0.1,3.7,0.1
	c2.1,0.1,4.6,0,6.9-0.6c0.9-0.2,1.7-0.5,2.9-1c1.7-0.8,3.5-1.7,5.1-2.6c1.2-0.6,2.2-1.2,3.2-1.7c1.6-0.8,3.3-1.6,5.2-2.3l0.3-0.1
	c1.7-0.6,3.4-1.2,5.2-1.7l0.6-0.2c1.6-0.5,3.3-0.8,5.1-1.2l0.8-0.2c1.6-0.3,3.3-0.5,5.1-0.7l0.9-0.1c1.7-0.1,3.4-0.2,5.1-0.2h0.9
	c1.8,0,3.5,0.1,5.2,0.2l0.6,0.1c1.7,0.2,3.3,0.4,4.7,0.6c-14.8-40.4-39.8-76.4-72.5-104.6c-0.1,0-0.1,0.1-0.2,0.1
	c-2.2,1.6-4.7,3.7-5.3,5.8c-0.8,2.8,1,6.2,3,10.2C386.1,183.1,389.2,189,386.9,195.7z"/>
<path class="st30" d="M474,353.4c0-7.1-0.3-14.4-0.9-21.7c-1.5-0.2-3.1-0.4-4.6-0.6h-0.3c-5.6-0.8-11.5-1.6-16.9-1.5
	c-1.9,0.1-3.9,0.2-6.2,0.5c-1.4,0.2-2.9,0.4-4.3,0.7c-5,1-10.1,2.3-14.6,3.5c-7,1.9-14.2,3.8-21.6,4.6c-0.3,0.1-0.7,0.1-1.1,0.1
	h-0.6c-5.9,0.5-11.8,0.4-17.4,0.2h-0.7c-2.5,0-5-0.1-7.5-0.1h-1.4c-1.2,0-2.3,0.1-3.5,0.1h-0.7c-0.3,0-0.6,0-0.9,0
	c-1.9,0.1-3.5,0.2-5,0.4c-7.9,0.9-18.3,4.6-23.6,11.9c-1.2,1.6-2.1,3.3-2.7,5.2c-1.5,4.6-1.1,10-0.7,15.2
	c1.7,22.7,5.6,44.9,22.1,54.2c3,1.6,6.5,2.9,9.9,4.1c6.2,2.2,13.2,4.8,18.4,10.3c7.7,8.2,8.3,19.4,8.9,29.2
	c0.2,4.3,0.5,8.8,1.3,12.7c0.3,1.3,0.7,2.7,1.1,4.1c0.1,0.1,0.1,0.3,0.2,0.5c0.1,0.2,0.2,0.5,0.3,0.7l0.1,0.3c0.3,0.8,0.6,1.7,1,2.5
	c0.1,0.3,0.3,0.5,0.4,0.8l0.6,1.2c0.4,0.7,0.7,1.4,1.1,2.1c0.2,0.3,0.4,0.6,0.6,0.9l0.8,1.2c0.4,0.6,0.8,1.2,1.2,1.8
	c0.3,0.3,0.5,0.7,0.8,1l0.9,1.1c0.4,0.6,0.9,1.2,1.4,1.8c0.3,0.4,0.7,0.7,1,1.1l1,1.1c0.5,0.6,1,1.1,1.6,1.7
	c0.4,0.4,0.8,0.7,1.2,1.1l1.1,1c0.6,0.5,1.2,1.1,1.9,1.7c0.4,0.4,0.9,0.7,1.3,1.1c8.4-10.5,16-21.7,22.6-33.4
	C462,442,473,402.6,474.2,360.9C474.3,358.4,474.3,355.9,474,353.4z"/>
<path class="st30" d="M261.3,440.4c2.2-1.7,4.5-3.5,6.5-5.2c6.6-5.8,11.4-15.1,7.4-21c-3-4.4-9.3-5-16.5-5.8
	c-6.2-0.6-12.7-1.3-18.4-4.5c-2.5-1.4-4.6-3.1-6.5-4.7c-1.1-0.9-2-1.7-3-2.4c-12.8-9.4-31-6.8-48.5-4.3c-0.7,0.1-1.4,0.2-2.1,0.3
	l64,97.9c-2.4-10-4.8-21.3-0.1-31.7C247.8,450.7,255,445.2,261.3,440.4z"/>
<path class="st30" d="M410.2,518.3c-0.7-0.6-1.3-1.3-2-1.9l-1.1-1c-0.5-0.5-1-1-1.5-1.5c-0.7-0.6-1.3-1.3-1.9-2l-0.9-1
	c-0.4-0.5-0.9-1-1.3-1.5c-0.6-0.7-1.1-1.3-1.6-2l-0.9-1.2c-0.4-0.5-0.8-1-1.1-1.5c-0.5-0.7-1-1.4-1.4-2.1l-0.7-1.2
	c-0.3-0.4-0.6-0.9-0.9-1.4c-0.4-0.8-0.8-1.6-1.2-2.4l-0.6-1.2c-0.3-0.5-0.5-0.9-0.7-1.4c-0.4-1-0.7-2-1.1-3l-0.3-0.9
	c-0.1-0.4-0.3-0.8-0.4-1.2c-0.6-1.7-1.1-3.5-1.4-5.2c-0.9-4.7-1.2-9.5-1.5-14.1c-0.5-9.3-1-17.3-6.1-22.8c-3.5-3.8-8.5-5.6-14.4-7.7
	c-3.8-1.3-7.7-2.7-11.4-4.8c-20.8-11.6-25.4-36.8-27.3-62.3c-0.4-5.8-0.9-12.5,1.1-19c1.7-5.5,5-10.3,9.8-14.2
	c8.6-7.1,19.3-9.3,24.9-10c0.8-0.1,1.7-0.1,2.5-0.2l0.7-0.1c5.8-0.5,11.5-0.4,17.4-0.2c6.1,0.2,12.4,0.3,18.4-0.3
	c6.7-0.7,13.5-2.5,20.1-4.3l3.3-0.9c5.4-1.5,11.3-2.9,17.3-3.6c2.5-0.3,4.7-0.5,6.9-0.5c6.3-0.1,12.6,0.8,18.6,1.6
	c0.8,0.1,1.5,0.2,2.3,0.3c-1-7.8-2.3-15.5-4-23c-1.5-6.8-3.4-13.8-5.6-20.7h-0.1l-1.5-0.4c-0.5-0.2-1-0.3-1.5-0.4
	c-0.7-0.2-1.5-0.3-2.2-0.4l-1.6-0.3c-0.4-0.1-0.9-0.1-1.4-0.2c-0.7-0.1-1.5-0.2-2.2-0.2l-1.7-0.1c-0.5,0-0.9-0.1-1.4-0.1
	c-0.7-0.1-1.5,0-2.2,0h-1.7c-0.4,0-0.9,0-1.3,0c-0.8,0.1-1.5,0.2-2.3,0.3l-1.7,0.2c-0.4,0.1-0.8,0.1-1.2,0.2
	c-0.8,0.1-1.6,0.3-2.4,0.5l-1.6,0.4c-0.3,0-0.7,0.1-1,0.2c-1,0.2-1.9,0.6-2.9,0.9l-0.5,0.2c-0.2,0.1-0.5,0.2-0.8,0.3
	c-0.3,0.1-0.6,0.2-0.8,0.3c-1.7,0.6-3.3,1.3-4.8,2.1c-0.9,0.5-1.9,1-2.8,1.5c-2.8,1.6-5.5,3-8.5,4l-0.3,0.1
	c-0.6,0.2-1.1,0.4-1.6,0.5c-4.7,1.2-9.4,1-13.6,0.8c-1.8-0.1-3.4-0.1-5.1-0.1c-2.4,0-4.9,0.3-7.8,0.7c-4.5,0.7-9.6,2.1-14.1,3.2
	c-8,1.9-16.2,3.7-24.3,3.5c-6.2-0.2-11.3-1.5-16.1-4.2c-0.8-0.5-1.7-1-2.5-1.6c-0.5-0.4-1-0.7-1.5-1.1c-1.3-1-2.3-2-3.1-2
	c-1.7,0-3.2,6-3.8,8.7c-0.3,1.5-0.6,2.9-1,4.2c-1.9,6.5-6.8,12-13.3,15.5l-0.2,0.1c-0.4,0.1-0.7,0.3-1,0.4l-0.7,0.3
	c-0.4,0.2-0.8,0.3-1.2,0.5c-0.2,0.1-0.4,0.2-0.7,0.3c-1,0.3-1.7,0.6-2.5,0.8c-0.4,0.1-0.7,0.2-1.1,0.3c-0.8,0.2-1.7,0.4-2.5,0.5
	c-0.4,0-0.6,0.1-0.8,0.1c-1,0.1-2.1,0.2-3.1,0.2h-0.3c-0.2,0-0.4,0-0.6,0c-0.8,0-1.8-0.1-2.8-0.2c-0.4,0-0.7,0-1-0.1
	c-1.4-0.2-2.5-0.5-3.5-0.8c-1.5-0.5-2.9-1-4.4-1.8c-11.1-5.6-18.2-17.9-17.8-30.7c0.5-12.7,8.8-26.1,20.9-33
	c3.4-1.9,6.9-3.4,10.4-4.6c-8.6-8.7-13.7-20.1-14.5-32.4c-0.9-13.6,3.6-26.7,12.6-36.9c9-10.2,21.4-16.3,35-17.2
	c13.6-0.9,26.7,3.6,36.9,12.6c6.6,5.8,11.5,13.1,14.3,21.2c0.4-0.3,0.8-0.7,1.1-1.1c0.3-0.3,0.5-0.7,0.6-1.1
	c0.9-2.7-0.8-6.2-2.8-10.2c-2.6-5.2-5.4-11-3.5-17.6c0.2-0.7,0.4-1.3,0.7-1.9c0.9-2.1,2.3-4,4.3-5.9l0.4-0.3
	c0.5-0.6,1.2-1.1,1.8-1.6c-12.5-9.9-26.1-18.7-40.2-26.1c-7.9-4.2-16.3-8-24.8-11.3c-0.2,0.4-0.5,0.7-0.8,1.1c-0.5,0.6-0.7,1-1,1.3
	c-0.3,0.4-0.7,0.9-1.1,1.3l-0.2,0.3c-0.2,0.3-0.5,0.6-0.8,0.9c-0.3,0.3-0.7,0.7-1.1,1.1l-0.4,0.4c-0.3,0.3-0.5,0.6-0.8,0.8
	c-0.4,0.4-0.9,0.7-1.3,1.1l-0.5,0.4c-0.3,0.2-0.5,0.4-0.8,0.6c-0.5,0.3-1,0.7-1.5,1l-0.5,0.4c-0.3,0.1-0.5,0.3-0.8,0.5
	c-0.6,0.4-1.2,0.8-1.8,1.1l-0.4,0.2c-0.2,0.1-0.5,0.3-0.7,0.4c-1,0.5-2,1-3,1.4c-2.8,1.2-5.6,2.3-8.4,3.1c-5.7,1.7-10.6,3-13.6,6.6
	c-1,1.2-1.7,2.7-2.6,4.5l-1.1,2.5c-2.8,6-6,11.8-9.7,17.3c-1.2,1.8-2.5,3.6-3.8,5.4c-0.9,1.2-2.1,2.6-3.6,3.8
	c-0.6,0.4-1.2,0.8-1.8,1.1c-0.7,0.3-1.5,0.6-2.3,0.8c-0.3,0-0.6,0.1-0.9,0.1c-0.5,0-0.9,0.1-1.2,0.1h-0.4c-0.6,0-1.3-0.1-1.9-0.2
	l-0.4-0.1c-0.5-0.1-1-0.2-1.5-0.4l-0.5-0.2c-0.6-0.2-1.1-0.4-1.6-0.7c-0.7-0.3-1.3-0.7-1.8-1l-0.3-0.2c-0.4-0.3-0.9-0.7-1.3-1
	l-0.5-0.5c-0.4-0.4-0.7-0.7-1.1-1.1l-0.2-0.2c-6.5-7-7.2-15.8-7.2-24.4c0-1.9,0.1-3.8,0.1-5.7c0.1-3.3,0.2-6.7,0-9.8
	c-0.1-1.5-0.2-3-0.5-4.6c-0.1-0.2-0.1-0.5-0.2-0.8l-0.3-1.4c-0.2-0.8-0.3-1.5-0.5-2.3c-0.1-0.4-0.2-0.7-0.3-1.1l-0.5-1.5
	c-0.1-0.6-0.3-1.2-0.5-1.8c-0.2-0.4-0.3-0.8-0.5-1.2l-0.6-1.5c-0.2-0.5-0.4-1.1-0.6-1.6c-0.2-0.4-0.4-0.9-0.6-1.3l-0.6-1.3
	c-0.2-0.5-0.5-1-0.7-1.5c-0.2-0.4-0.5-0.9-0.7-1.4l-0.6-1.2c-0.2-0.4-0.4-0.9-0.7-1.4c-0.3-0.4-0.5-0.9-0.8-1.4l-0.7-1.2
	c-0.3-0.4-0.5-0.9-0.8-1.3c-0.3-0.6-0.6-1.1-0.9-1.6v-0.1c-13.6,0.3-27.1,1.6-40.4,4l10.4,20.6c2,4.1,3.9,8.5,2.7,13.5
	c-1.5,6.2-7.4,9.6-10.6,11.4l-1.9,1.1c-10.6,6-21.5,12.2-29.7,21.1c-7.1,7.6-13.6,20-10.7,32c1,3.9,2.9,7.8,4.8,11.6
	c2.5,4.9,5,10,6,15.8c3.1,18-9.8,33.4-17.8,41c-3.6,3.3-7.3,6.4-10.9,9.4c-6.8,5.6-13.7,11.4-18.7,18.3c-2.7,3.8-4.7,8.5-5.7,13.1
	c-1,4.5-1.8,12.9,3.8,18.9c2.4,2.6,6,4.7,9.4,6.7c4.9,2.9,10.5,6.1,14.1,11.7c0.8,1.3,1.5,2.7,2.1,4.1l15.8-24.4l34.8,53.3
	c0.3,0,0.5-0.1,0.7-0.1c2-0.3,4-0.6,6.1-0.9c19.6-2.8,39.8-5.7,56,6.2c1.1,0.9,2.3,1.9,3.4,2.8c1.8,1.5,3.3,2.8,5,3.7
	c3.9,2.2,9.3,2.7,14.5,3.3c8.6,0.9,18.2,1.9,23.9,10.2c7.5,10.9,1.1,25.5-9.1,34.4c-2.3,2-4.8,3.9-7,5.6
	c-6.2,4.7-11.5,8.7-14.1,14.6c-3.4,7.6-1.4,16.1,0.9,26c1.6,7,3.2,14.2,2.9,21.5l7.3,11.1l60.4-96.7l70.6,112
	c5.5-5.2,10.7-10.5,15.5-16c0.6-0.7,1.2-1.3,1-1.5C411.3,519.2,410.7,518.8,410.2,518.3z"/>
<path class="st30" d="M223.4,606.6c28.2-0.2,55.9-5.1,82.4-14.5c30.2-10.7,57.8-26.9,81.9-48.1l-62.9-99.8L223.4,606.6z"/>
<path class="st30" d="M139.2,348.7L29.1,518.6C75,572,141.3,603.9,211.5,606.5l47-75.2L139.2,348.7z"/>
<path class="st30" d="M-2.4,266.9c0.7,6.2-2.2,11.8-4.6,16.2l-0.4,0.8c-4,7.8-5,16.2-3,27.4c1,5.9,2.8,12,4.6,18.4
	c0.8,2.8,1.6,5.7,2.4,8.5l0.6,2.1c3.1,11.5,5.9,22,11.3,28.6c-9.1-16.2-10.2-29.6-3.4-40.6l4.1-6.7l4.4,6.5
	c10.3,14.9,26.5,25.4,44.3,28.8c2.6,0.5,5.3,0.9,7.9,1.2c5.4,0.8,11,1.5,16.5,3.4c9.4,3.3,17.2,9.2,24.2,18.5l9.5-14.6
	c-0.1-0.4-0.3-0.9-0.4-1.4c-0.9-3.3-1.6-6.1-3.1-8.4c-2.3-3.5-6.2-5.8-10.7-8.4c-4.1-2.4-8.3-4.8-11.8-8.6
	c-6.4-6.9-8.7-16.6-6.5-27.4c1.3-6.2,3.9-12.2,7.6-17.4c5.7-8,13.2-14.2,20.4-20.2c3.5-2.9,7.1-5.9,10.4-9
	c6.5-6.2,17.1-18.5,14.8-31.9c-0.7-4.4-2.8-8.6-5-13c-2.1-4.3-4.3-8.7-5.5-13.7c-3.3-13.6,1.7-29,13.2-41.4
	c9.2-9.8,20.8-16.4,32.1-22.8l1.9-1.1c2.6-1.4,5.3-3.1,5.8-5c0.4-1.6-0.8-4.1-2-6.5l-11.6-23.1c-79,17.6-144.9,72.1-177.5,146.4
	C-6.2,256.5-3,261.4-2.4,266.9z"/>
<path class="st30" d="M79.1,371.5c-4.5-1.6-9.6-2.3-14.5-2.9c-2.8-0.4-5.6-0.8-8.4-1.3C39,364,23,354.8,11.3,341.7
	c-1.2,9.4,4,21.5,15.7,36.6l6.7,8.7l-10.9-0.5c-24-1-29.9-23.5-35.2-43.3l-0.6-2.1c-0.7-2.8-1.5-5.5-2.3-8.3
	c-1.8-6.5-3.8-13.3-4.9-19.9c-2.3-13.2-1-23.8,4.1-33.5l0.4-0.8c2-3.8,3.8-7.3,3.5-10.4c-0.2-1.9-1.3-3.8-3.3-5.6
	c-6.2,16.2-10.7,33.1-13.5,50.2c-2.1,13.4-3.2,27-3.2,40.6c0,56.9,19.3,112.4,54.5,157.2l78.4-121C94.3,380.2,87.4,374.4,79.1,371.5
	z"/>
<path class="st30" d="M230,103.5c0.3,0.7,0.7,1.4,1,2.1c0.4,0.8,0.7,1.6,1.1,2.4l0.3,0.6c0.2,0.6,0.5,1.1,0.7,1.7
	c0.3,0.9,0.6,1.7,0.9,2.5l0.3,0.8c0.2,0.5,0.4,1.1,0.6,1.6c0.3,0.8,0.5,1.7,0.8,2.6l0.3,1c0.1,0.5,0.3,1,0.4,1.5
	c0.3,1.1,0.5,2.2,0.7,3.3l0.2,0.8c0,0.4,0.1,0.8,0.2,1.2c0.3,1.9,0.5,3.7,0.6,5.5c0.2,3.5,0.1,7.2,0,10.7c-0.1,4.4-0.3,8.9,0.3,13.2
	c0.4,2.2,0.9,4.3,1.8,6.2c1,2.1,2.4,4.1,4.5,5.2c0.3,0.1,0.6,0.3,1,0.3c0.6,0,1.1-0.2,1.5-0.6c0.5-0.5,0.9-1.1,1.3-1.7
	c0.5-0.7,0.9-1.3,1.4-2c1-1.4,2-2.8,2.9-4.3c2.9-4.5,5.5-9.2,7.7-14.1l0.4-0.9c0.7-1.4,1.3-2.8,2-4.1l0.2-0.4
	c0.9-1.6,1.7-2.8,2.6-3.9c4.4-5.4,10.7-7.6,16.3-9.3l2.2-0.6c2.7-0.8,5.3-1.6,7.6-2.5c0.8-0.3,1.5-0.6,2.2-1l0.7-0.4
	c0.5-0.3,1-0.5,1.4-0.8c0.1-0.1,0.3-0.2,0.4-0.3l0.4-0.2c0.5-0.4,0.8-0.6,1.2-0.9c0.2-0.1,0.4-0.2,0.6-0.4l0.3-0.2
	c0.4-0.3,0.8-0.6,1.1-0.9c0.2-0.1,0.4-0.3,0.6-0.5l0.2-0.2c0.3-0.3,0.7-0.7,1-1c0.2-0.2,0.4-0.5,0.6-0.7c0.4-0.4,0.7-0.7,0.9-1
	c-24.3-8.4-49.5-12.9-75.3-14c0.2,0.4,0.5,0.9,0.7,1.3C229.2,101.9,229.6,102.7,230,103.5z"/>
<path class="st30" d="M386.9,195.7c-0.5,1.3-1,2.5-1.7,3.5c-0.3,0.5-0.7,1-1.1,1.5c-1.7,1.9-3.8,3.2-6.2,4.2
	c0.2,1.2,0.3,2.4,0.4,3.6c0.9,13.6-3.6,26.7-12.6,36.9c-9,10.2-21.4,16.3-35,17.2c-1.1,0-2.2,0.1-3.3,0.1c-9.4,0-18.4-2.5-26.4-7.4
	c-4.5,1.2-9.2,2.5-13.2,4.6c-0.7,0.3-1.4,0.6-2,1c-5.1,2.9-9.1,6.9-11.9,12c-2.1,3.8-3.4,8-3.5,12.1c-0.4,10.1,5.6,20,14.5,22.7
	c0.6,0.2,1.1,0.3,1.7,0.4c4.1,0.8,8.5,0,12.4-2.1c1.1-0.6,2-1.2,2.9-1.9l0.3-0.3c0.4-0.3,0.6-0.5,0.9-0.8c1.4-1.4,2.5-3,3.3-4.7
	c0.2-0.6,0.4-1.1,0.6-1.7c0.3-1.1,0.6-2.4,0.9-3.6c1.5-6.5,4.1-17.4,14.1-17c4,0.2,7.1,2.4,9.3,4.1c0.4,0.3,0.8,0.6,1.2,0.9
	c3.8,2.6,8,3.9,13.4,4c6.7,0.1,14-1.6,21.8-3.4c7.8-1.8,15.8-3.7,23.7-3.8c1.7-0.1,3.5,0,5.3,0.1h0.3c1.3,0,2.5,0.1,3.7,0.1
	c2.1,0.1,4.6,0,6.9-0.6c0.9-0.2,1.7-0.5,2.9-1c1.7-0.8,3.5-1.7,5.1-2.6c1.2-0.6,2.2-1.2,3.2-1.7c1.6-0.8,3.3-1.6,5.2-2.3l0.3-0.1
	c1.7-0.6,3.4-1.2,5.2-1.7l0.6-0.2c1.6-0.5,3.3-0.8,5.1-1.2l0.8-0.2c1.6-0.3,3.3-0.5,5.1-0.7l0.9-0.1c1.7-0.1,3.4-0.2,5.1-0.2h0.9
	c1.8,0,3.5,0.1,5.2,0.2l0.6,0.1c1.7,0.2,3.3,0.4,4.7,0.6c-14.8-40.4-39.8-76.4-72.5-104.6c-0.1,0-0.1,0.1-0.2,0.1
	c-2.2,1.6-4.7,3.7-5.3,5.8c-0.8,2.8,1,6.2,3,10.2C386.1,183.1,389.2,189,386.9,195.7z"/>
<path class="st30" d="M474,353.4c0-7.1-0.3-14.4-0.9-21.7c-1.5-0.2-3.1-0.4-4.6-0.6h-0.3c-5.6-0.8-11.5-1.6-16.9-1.5
	c-1.9,0.1-3.9,0.2-6.2,0.5c-1.4,0.2-2.9,0.4-4.3,0.7c-5,1-10.1,2.3-14.6,3.5c-7,1.9-14.2,3.8-21.6,4.6c-0.3,0.1-0.7,0.1-1.1,0.1
	h-0.6c-5.9,0.5-11.8,0.4-17.4,0.2h-0.7c-2.5,0-5-0.1-7.5-0.1h-1.4c-1.2,0-2.3,0.1-3.5,0.1h-0.7c-0.3,0-0.6,0-0.9,0
	c-1.9,0.1-3.5,0.2-5,0.4c-7.9,0.9-18.3,4.6-23.6,11.9c-1.2,1.6-2.1,3.3-2.7,5.2c-1.5,4.6-1.1,10-0.7,15.2
	c1.7,22.7,5.6,44.9,22.1,54.2c3,1.6,6.5,2.9,9.9,4.1c6.2,2.2,13.2,4.8,18.4,10.3c7.7,8.2,8.3,19.4,8.9,29.2
	c0.2,4.3,0.5,8.8,1.3,12.7c0.3,1.3,0.7,2.7,1.1,4.1c0.1,0.1,0.1,0.3,0.2,0.5c0.1,0.2,0.2,0.5,0.3,0.7l0.1,0.3c0.3,0.8,0.6,1.7,1,2.5
	c0.1,0.3,0.3,0.5,0.4,0.8l0.6,1.2c0.4,0.7,0.7,1.4,1.1,2.1c0.2,0.3,0.4,0.6,0.6,0.9l0.8,1.2c0.4,0.6,0.8,1.2,1.2,1.8
	c0.3,0.3,0.5,0.7,0.8,1l0.9,1.1c0.4,0.6,0.9,1.2,1.4,1.8c0.3,0.4,0.7,0.7,1,1.1l1,1.1c0.5,0.6,1,1.1,1.6,1.7
	c0.4,0.4,0.8,0.7,1.2,1.1l1.1,1c0.6,0.5,1.2,1.1,1.9,1.7c0.4,0.4,0.9,0.7,1.3,1.1c8.4-10.5,16-21.7,22.6-33.4
	C462,442,473,402.6,474.2,360.9C474.3,358.4,474.3,355.9,474,353.4z"/>
<path class="st30" d="M261.3,440.4c2.2-1.7,4.5-3.5,6.5-5.2c6.6-5.8,11.4-15.1,7.4-21c-3-4.4-9.3-5-16.5-5.8
	c-6.2-0.6-12.7-1.3-18.4-4.5c-2.5-1.4-4.6-3.1-6.5-4.7c-1.1-0.9-2-1.7-3-2.4c-12.8-9.4-31-6.8-48.5-4.3c-0.7,0.1-1.4,0.2-2.1,0.3
	l64,97.9c-2.4-10-4.8-21.3-0.1-31.7C247.8,450.7,255,445.2,261.3,440.4z"/>
<path class="st30" d="M223.4,606.6c28.2-0.2,55.9-5.1,82.4-14.5c30.2-10.7,57.8-26.9,81.9-48.1l-62.9-99.8L223.4,606.6z"/>
<path class="st30" d="M410.2,518.3c-0.7-0.6-1.3-1.3-2-1.9l-1.1-1c-0.5-0.5-1-1-1.5-1.5c-0.7-0.6-1.3-1.3-1.9-2l-0.9-1
	c-0.4-0.5-0.9-1-1.3-1.5c-0.6-0.7-1.1-1.3-1.6-2l-0.9-1.2c-0.4-0.5-0.8-1-1.1-1.5c-0.5-0.7-1-1.4-1.4-2.1l-0.7-1.2
	c-0.3-0.4-0.6-0.9-0.9-1.4c-0.4-0.8-0.8-1.6-1.2-2.4l-0.6-1.2c-0.3-0.5-0.5-0.9-0.7-1.4c-0.4-1-0.7-2-1.1-3l-0.3-0.9
	c-0.1-0.4-0.3-0.8-0.4-1.2c-0.6-1.7-1.1-3.5-1.4-5.2c-0.9-4.7-1.2-9.5-1.5-14.1c-0.5-9.3-1-17.3-6.1-22.8c-3.5-3.8-8.5-5.6-14.4-7.7
	c-3.8-1.3-7.7-2.7-11.4-4.8c-20.8-11.6-25.4-36.8-27.3-62.3c-0.4-5.8-0.9-12.5,1.1-19c1.7-5.5,5-10.3,9.8-14.2
	c8.6-7.1,19.3-9.3,24.9-10c0.8-0.1,1.7-0.1,2.5-0.2l0.7-0.1c5.8-0.5,11.5-0.4,17.4-0.2c6.1,0.2,12.4,0.3,18.4-0.3
	c6.7-0.7,13.5-2.5,20.1-4.3l3.3-0.9c5.4-1.5,11.3-2.9,17.3-3.6c2.5-0.3,4.7-0.5,6.9-0.5c6.3-0.1,12.6,0.8,18.6,1.6
	c0.8,0.1,1.5,0.2,2.3,0.3c-1-7.8-2.3-15.5-4-23c-1.5-6.8-3.4-13.8-5.6-20.7h-0.1l-1.5-0.4c-0.5-0.2-1-0.3-1.5-0.4
	c-0.7-0.2-1.5-0.3-2.2-0.4l-1.6-0.3c-0.4-0.1-0.9-0.1-1.4-0.2c-0.7-0.1-1.5-0.2-2.2-0.2l-1.7-0.1c-0.5,0-0.9-0.1-1.4-0.1
	c-0.7-0.1-1.5,0-2.2,0h-1.7c-0.4,0-0.9,0-1.3,0c-0.8,0.1-1.5,0.2-2.3,0.3l-1.7,0.2c-0.4,0.1-0.8,0.1-1.2,0.2
	c-0.8,0.1-1.6,0.3-2.4,0.5l-1.6,0.4c-0.3,0-0.7,0.1-1,0.2c-1,0.2-1.9,0.6-2.9,0.9l-0.5,0.2c-0.2,0.1-0.5,0.2-0.8,0.3
	c-0.3,0.1-0.6,0.2-0.8,0.3c-1.7,0.6-3.3,1.3-4.8,2.1c-0.9,0.5-1.9,1-2.8,1.5c-2.8,1.6-5.5,3-8.5,4l-0.3,0.1
	c-0.6,0.2-1.1,0.4-1.6,0.5c-4.7,1.2-9.4,1-13.6,0.8c-1.8-0.1-3.4-0.1-5.1-0.1c-2.4,0-4.9,0.3-7.8,0.7c-4.5,0.7-9.6,2.1-14.1,3.2
	c-8,1.9-16.2,3.7-24.3,3.5c-6.2-0.2-11.3-1.5-16.1-4.2c-0.8-0.5-1.7-1-2.5-1.6c-0.5-0.4-1-0.7-1.5-1.1c-1.3-1-2.3-2-3.1-2
	c-1.7,0-3.2,6-3.8,8.7c-0.3,1.5-0.6,2.9-1,4.2c-1.9,6.5-6.8,12-13.3,15.5l-0.2,0.1c-0.4,0.1-0.7,0.3-1,0.4l-0.7,0.3
	c-0.4,0.2-0.8,0.3-1.2,0.5c-0.2,0.1-0.4,0.2-0.7,0.3c-1,0.3-1.7,0.6-2.5,0.8c-0.4,0.1-0.7,0.2-1.1,0.3c-0.8,0.2-1.7,0.4-2.5,0.5
	c-0.4,0-0.6,0.1-0.8,0.1c-1,0.1-2.1,0.2-3.1,0.2h-0.3c-0.2,0-0.4,0-0.6,0c-0.8,0-1.8-0.1-2.8-0.2c-0.4,0-0.7,0-1-0.1
	c-1.4-0.2-2.5-0.5-3.5-0.8c-1.5-0.5-2.9-1-4.4-1.8c-11.1-5.6-18.2-17.9-17.8-30.7c0.5-12.7,8.8-26.1,20.9-33
	c3.4-1.9,6.9-3.4,10.4-4.6c-8.6-8.7-13.7-20.1-14.5-32.4c-0.9-13.6,3.6-26.7,12.6-36.9c9-10.2,21.4-16.3,35-17.2
	c13.6-0.9,26.7,3.6,36.9,12.6c6.6,5.8,11.5,13.1,14.3,21.2c0.4-0.3,0.8-0.7,1.1-1.1c0.3-0.3,0.5-0.7,0.6-1.1
	c0.9-2.7-0.8-6.2-2.8-10.2c-2.6-5.2-5.4-11-3.5-17.6c0.2-0.7,0.4-1.3,0.7-1.9c0.9-2.1,2.3-4,4.3-5.9l0.4-0.3
	c0.5-0.6,1.2-1.1,1.8-1.6c-12.5-9.9-26.1-18.7-40.2-26.1c-7.9-4.2-16.3-8-24.8-11.3c-0.2,0.4-0.5,0.7-0.8,1.1c-0.5,0.6-0.7,1-1,1.3
	c-0.3,0.4-0.7,0.9-1.1,1.3l-0.2,0.3c-0.2,0.3-0.5,0.6-0.8,0.9c-0.3,0.3-0.7,0.7-1.1,1.1l-0.4,0.4c-0.3,0.3-0.5,0.6-0.8,0.8
	c-0.4,0.4-0.9,0.7-1.3,1.1l-0.5,0.4c-0.3,0.2-0.5,0.4-0.8,0.6c-0.5,0.3-1,0.7-1.5,1l-0.5,0.4c-0.3,0.1-0.5,0.3-0.8,0.5
	c-0.6,0.4-1.2,0.8-1.8,1.1l-0.4,0.2c-0.2,0.1-0.5,0.3-0.7,0.4c-1,0.5-2,1-3,1.4c-2.8,1.2-5.6,2.3-8.4,3.1c-5.7,1.7-10.6,3-13.6,6.6
	c-1,1.2-1.7,2.7-2.6,4.5l-1.1,2.5c-2.8,6-6,11.8-9.7,17.3c-1.2,1.8-2.5,3.6-3.8,5.4c-0.9,1.2-2.1,2.6-3.6,3.8
	c-0.6,0.4-1.2,0.8-1.8,1.1c-0.7,0.3-1.5,0.6-2.3,0.8c-0.3,0-0.6,0.1-0.9,0.1c-0.5,0-0.9,0.1-1.2,0.1h-0.4c-0.6,0-1.3-0.1-1.9-0.2
	l-0.4-0.1c-0.5-0.1-1-0.2-1.5-0.4l-0.5-0.2c-0.6-0.2-1.1-0.4-1.6-0.7c-0.7-0.3-1.3-0.7-1.8-1l-0.3-0.2c-0.4-0.3-0.9-0.7-1.3-1
	l-0.5-0.5c-0.4-0.4-0.7-0.7-1.1-1.1l-0.2-0.2c-6.5-7-7.2-15.8-7.2-24.4c0-1.9,0.1-3.8,0.1-5.7c0.1-3.3,0.2-6.7,0-9.8
	c-0.1-1.5-0.2-3-0.5-4.6c-0.1-0.2-0.1-0.5-0.2-0.8l-0.3-1.4c-0.2-0.8-0.3-1.5-0.5-2.3c-0.1-0.4-0.2-0.7-0.3-1.1l-0.5-1.5
	c-0.1-0.6-0.3-1.2-0.5-1.8c-0.2-0.4-0.3-0.8-0.5-1.2l-0.6-1.5c-0.2-0.5-0.4-1.1-0.6-1.6c-0.2-0.4-0.4-0.9-0.6-1.3l-0.6-1.3
	c-0.2-0.5-0.5-1-0.7-1.5c-0.2-0.4-0.5-0.9-0.7-1.4l-0.6-1.2c-0.2-0.4-0.4-0.9-0.7-1.4c-0.3-0.4-0.5-0.9-0.8-1.4l-0.7-1.2
	c-0.3-0.4-0.5-0.9-0.8-1.3c-0.3-0.6-0.6-1.1-0.9-1.6v-0.1c-13.6,0.3-27.1,1.6-40.4,4l10.4,20.6c2,4.1,3.9,8.5,2.7,13.5
	c-1.5,6.2-7.4,9.6-10.6,11.4l-1.9,1.1c-10.6,6-21.5,12.2-29.7,21.1c-7.1,7.6-13.6,20-10.7,32c1,3.9,2.9,7.8,4.8,11.6
	c2.5,4.9,5,10,6,15.8c3.1,18-9.8,33.4-17.8,41c-3.6,3.3-7.3,6.4-10.9,9.4c-6.8,5.6-13.7,11.4-18.7,18.3c-2.7,3.8-4.7,8.5-5.7,13.1
	c-1,4.5-1.8,12.9,3.8,18.9c2.4,2.6,6,4.7,9.4,6.7c4.9,2.9,10.5,6.1,14.1,11.7c0.8,1.3,1.5,2.7,2.1,4.1l15.8-24.4l34.8,53.3
	c0.3,0,0.5-0.1,0.7-0.1c2-0.3,4-0.6,6.1-0.9c19.6-2.8,39.8-5.7,56,6.2c1.1,0.9,2.3,1.9,3.4,2.8c1.8,1.5,3.3,2.8,5,3.7
	c3.9,2.2,9.3,2.7,14.5,3.3c8.6,0.9,18.2,1.9,23.9,10.2c7.5,10.9,1.1,25.5-9.1,34.4c-2.3,2-4.8,3.9-7,5.6
	c-6.2,4.7-11.5,8.7-14.1,14.6c-3.4,7.6-1.4,16.1,0.9,26c1.6,7,3.2,14.2,2.9,21.5l7.3,11.1l60.4-96.7l70.6,112
	c5.5-5.2,10.7-10.5,15.5-16c0.6-0.7,1.2-1.3,1-1.5C411.3,519.2,410.7,518.8,410.2,518.3z"/>
<radialGradient id="SVGID_3_" cx="328.0055" cy="214.729" r="67.6433" fx="284.9567" fy="162.5523" gradientUnits="userSpaceOnUse">
	<stop  offset="0" style="stop-color:#FF9D00"/>
	<stop  offset="7.381932e-002" style="stop-color:#FEA400"/>
	<stop  offset="1" style="stop-color:#F0FC00"/>
</radialGradient>
<circle class="st34" cx="328.2" cy="211.5" r="41"/>
<path class="st35" d="M403.2,171c-48.6-48.6-113.3-75.4-182.1-75.4S87.7,122.3,39,171c-48.6,48.6-75.4,113.3-75.4,182.1
	c0,68.8,26.8,133.4,75.4,182.1c48.6,48.6,113.3,75.4,182.1,75.4s133.4-26.8,182.1-75.4c48.6-48.6,75.4-113.3,75.4-182.1
	C478.6,284.3,451.8,219.6,403.2,171z M387,543.9c-24,21-51.4,37.1-81.4,47.7c-26.2,9.3-53.6,14.2-81.3,14.5l100.5-161L387,543.9z
	 M243.1,488l-62-94.9l1.3-0.2c17.5-2.5,35.5-5.1,48.1,4.2c0.7,0.5,1.4,1.1,2.1,1.7c0.3,0.2,0.5,0.5,0.8,0.7c1.8,1.5,4,3.3,6.6,4.8
	c5.9,3.3,13,4,18.6,4.6l0.5,0.1c6.9,0.8,12.8,1.4,15.6,5.5c3.8,5.7-0.9,14.7-7.3,20.3c-2,1.7-4.3,3.5-6.5,5.2
	c-6.4,4.9-13.6,10.4-17.4,18.8C239.4,468.1,240.8,477.9,243.1,488z M165.3,106.6l11.4,22.8c1,2,2.3,4.7,2,6.1
	c-0.5,1.8-3.2,3.4-5.6,4.7l-1.9,1.1c-11.3,6.4-22.9,13-32.2,22.9c-11.7,12.6-16.6,28.2-13.3,41.9c1.2,4.9,3.3,9.2,5.3,13.3l0.2,0.5
	c2.2,4.4,4.3,8.5,5,12.9c2.2,13.1-8.2,25.3-14.6,31.5c-3.2,3-6.6,5.8-10.4,9l-0.3,0.3c-7.1,5.9-14.5,12.1-20.2,20
	c-3.7,5.2-6.4,11.3-7.7,17.6c-2.2,10.9,0.1,20.8,6.6,27.8c3.4,3.7,7.5,6.1,11.5,8.5l0.4,0.2c4.2,2.5,8.2,4.8,10.5,8.2
	c1.4,2.1,2.1,4.7,2.9,7.6l0.2,0.6c0.1,0.3,0.2,0.6,0.3,0.9c0,0.1,0.1,0.2,0.1,0.3l-9,13.8c-6.9-9-14.6-14.8-24-18.1
	c-5-1.7-10.1-2.5-15-3.2l-1.6-0.2c-2.7-0.3-5.4-0.7-7.9-1.2c-17.7-3.4-33.8-13.8-44-28.6l-4.8-7.1L4.7,328
	c-4.6,7.4-5.6,15.7-3.3,25.2c-1.3-4-2.5-8.3-3.7-12.8l-0.7-2.4c-0.4-1.4-0.8-2.8-1.2-4.3c-0.4-1.4-0.8-2.8-1.2-4.2l-0.6-2
	c-1.6-5.7-3.1-11.1-4-16.4c-2-10.9-1-19.3,3-27.1l0.4-0.8c2.2-3.9,5.4-9.9,4.7-16.5c-0.6-5.6-3.8-10.5-9.4-14.5
	C21.2,178.6,87.2,124.2,165.3,106.6z M-16.1,278.3l-0.4,0.8c-5.1,9.8-6.5,20.5-4.2,33.8c1,5.8,2.6,11.8,4.3,17.6l1.1,3.9
	c0.7,2.3,1.3,4.5,1.9,6.8l0.7,2.4c5.3,19.9,11.3,42.4,35.6,43.4l12,0.5l-7.4-9.6c-11.2-14.5-16.4-26-15.7-35.1
	c11.8,12.8,27.5,21.7,44.4,24.9c2.8,0.5,5.7,0.9,8.4,1.3c5.1,0.6,10,1.3,14.4,2.9c8.1,2.8,14.8,8.4,21.2,17.6L22.3,509.7
	c-34.8-44.5-54-100-54-156.3c0-13.4,1.1-27,3.2-40.5c2.8-17,7.2-33.6,13.2-49.4c1.6,1.5,2.4,3.2,2.6,4.8
	C-12.4,271.2-14.3,274.8-16.1,278.3z M264.3,520.8l-6.8-10.3c0.3-7.5-1.4-14.9-2.9-21.5l0-0.1c-2.3-9.7-4.2-18.1-0.9-25.5
	c2.5-5.8,7.8-9.7,13.9-14.3l0.8-0.6c2-1.5,4.2-3.3,6.3-5.1c10.3-9,16.8-24,9.2-35.1c-5.8-8.5-15.6-9.5-24.3-10.4l-1-0.1
	c-4.8-0.5-9.8-1.1-13.4-3.1c-1.5-0.8-2.9-1.9-4.5-3.3l-2.1-1.7c-0.6-0.5-1.2-1-1.8-1.5c-16.3-12-36.7-9.1-56.4-6.3
	c-2.1,0.3-4.1,0.6-6,0.9c-0.1,0-0.3,0-0.4,0.1c0,0,0,0-0.1,0L139,329.1l-15.7,24.3c-0.5-1.2-1.1-2.3-1.8-3.3
	c-3.6-5.5-9-8.7-13.8-11.6l-0.6-0.4c-3.4-2-6.8-4-9.1-6.5c-5.5-5.9-4.7-14.1-3.7-18.5c1-4.7,3-9.2,5.6-12.9
	c4.8-6.6,11.3-12.2,18.6-18.2c3.9-3.2,7.4-6.2,10.9-9.4c8.1-7.6,21.1-23.2,17.9-41.4c-1-5.7-3.3-10.6-6-15.9
	c-2-4.1-3.8-7.8-4.8-11.5c-2.9-11.8,3.6-24.1,10.6-31.5c8.2-8.9,19.1-15.1,29.6-21l1.9-1.1c3-1.7,9.3-5.2,10.8-11.7
	c1.2-5.1-0.6-9.4-2.7-13.8l-10.1-20c12.7-2.3,25.9-3.6,39.3-3.9c0.3,0.5,0.5,0.9,0.8,1.5c0.1,0.2,0.3,0.4,0.4,0.6
	c0.1,0.2,0.3,0.5,0.4,0.7l0.7,1.2c0.1,0.2,0.2,0.4,0.3,0.6c0.2,0.3,0.3,0.6,0.5,0.8c0.2,0.3,0.3,0.7,0.5,0.9
	c0.1,0.1,0.1,0.3,0.2,0.4l0.6,1.2c0.1,0.4,0.3,0.7,0.5,1c0.1,0.1,0.1,0.3,0.2,0.4c0.1,0.3,0.2,0.5,0.4,0.8c0.1,0.2,0.2,0.5,0.3,0.7
	l0.6,1.3c0.1,0.2,0.2,0.4,0.3,0.6c0.1,0.2,0.2,0.5,0.3,0.6c0.1,0.2,0.2,0.5,0.3,0.8c0.1,0.3,0.2,0.6,0.3,0.8l0.6,1.5
	c0.1,0.2,0.2,0.4,0.2,0.6c0.1,0.2,0.2,0.4,0.2,0.6c0.2,0.6,0.4,1.2,0.5,1.8l0.5,1.5c0.1,0.2,0.1,0.4,0.2,0.6c0,0.2,0.1,0.3,0.1,0.5
	c0.1,0.4,0.2,0.8,0.2,1.1c0.1,0.4,0.2,0.8,0.3,1.2l0.3,1.5c0,0.1,0.1,0.2,0.1,0.3c0,0.2,0.1,0.3,0.1,0.5c0.3,1.5,0.4,3,0.5,4.5
	c0.2,3.1,0.1,6.5,0,9.8c0,0.9,0,1.9,0,2.8c0,1-0.1,1.9-0.1,2.9c0,8.1,0.6,17.5,7.3,24.8l1.9,1.8c0.2,0.1,0.4,0.3,0.6,0.5
	c0.2,0.2,0.5,0.4,0.7,0.5l0.6,0.4c0.5,0.3,1,0.6,1.5,0.8c0.6,0.4,1.2,0.6,1.7,0.7l0.5,0.2c0.5,0.2,1.1,0.3,1.6,0.4l0.4,0.1
	c0.6,0.1,1.3,0.2,2,0.2h0.4c0.1,0,0.3,0,0.5,0c0.3,0,0.8,0,1.2-0.1c0.1,0,0.2,0,0.4,0l0.1,0c0.7-0.2,1.5-0.5,2.4-0.8
	c0.6-0.3,1.2-0.7,1.9-1.2c1.3-1,2.5-2.3,3.7-3.9c1.3-1.8,2.6-3.6,3.8-5.4c3.5-5.3,6.8-11.1,9.7-17.4l1.1-2.5l0.3-0.5
	c0.8-1.5,1.4-2.8,2.3-3.9c2.7-3.3,7.2-4.6,12.4-6.2l0.9-0.3c2.4-0.7,5.1-1.7,8.4-3.1c1-0.4,2-0.9,3-1.4c0.1-0.1,0.2-0.1,0.4-0.2
	c0.1-0.1,0.2-0.1,0.3-0.2l0.4-0.2c0.6-0.3,1.3-0.7,1.9-1.1c0.1-0.1,0.2-0.1,0.3-0.2c0.2-0.1,0.3-0.2,0.4-0.3l0.6-0.4
	c0.3-0.2,0.5-0.3,0.8-0.5c0.2-0.2,0.5-0.3,0.7-0.5c0.2-0.1,0.3-0.2,0.4-0.3c0.1-0.1,0.2-0.2,0.4-0.3l0.5-0.4
	c0.2-0.2,0.4-0.3,0.6-0.5c0.2-0.2,0.5-0.4,0.6-0.5c0.3-0.2,0.4-0.4,0.6-0.6c0.1-0.1,0.2-0.2,0.3-0.3l1.5-1.5c0.3-0.3,0.6-0.6,0.9-1
	l0.1-0.2c0.4-0.4,0.9-1,1.1-1.3c0.2-0.2,0.3-0.4,0.5-0.6c0.1-0.2,0.3-0.4,0.6-0.7c0.1-0.1,0.2-0.2,0.3-0.3c0.1-0.1,0.2-0.3,0.3-0.4
	c8.6,3.3,16.8,7.1,24.4,11.1c14,7.4,27.4,16,39.6,25.7c-0.5,0.4-1,0.8-1.3,1.2l-0.4,0.3c-2.1,2-3.5,3.9-4.4,6
	c-0.3,0.7-0.6,1.4-0.7,2c-2,6.9,1.1,13,3.5,18c1.9,3.7,3.6,7.3,2.8,9.9c-0.1,0.3-0.3,0.7-0.5,0.9c-0.1,0.2-0.3,0.3-0.4,0.5
	c-2.9-7.9-7.8-15.1-14.2-20.7c-10.3-9.1-23.6-13.6-37.3-12.7c-13.7,0.9-26.3,7.1-35.3,17.4c-9.1,10.3-13.6,23.6-12.7,37.3
	c0.8,12.1,5.8,23.5,14.1,32.2c-3.7,1.2-6.9,2.7-9.8,4.3c-12.1,6.9-20.6,20.3-21.2,33.4c-0.4,13,6.9,25.5,18.1,31.2
	c1.6,0.8,3,1.3,4.5,1.8c1,0.3,2.1,0.6,3.5,0.8c0.4,0.1,0.7,0.1,1.1,0.1c1,0.1,2,0.2,2.8,0.2h0.9c1,0,2.2-0.1,3.1-0.2
	c0.1,0,0.3,0,0.4,0c0.1,0,0.3-0.1,0.5-0.1c0.7-0.1,1.5-0.3,2.6-0.5c0.2-0.1,0.4-0.1,0.6-0.2c0.2,0,0.3-0.1,0.5-0.1
	c0.5-0.1,0.9-0.3,1.4-0.4c0.3-0.1,0.7-0.2,1.2-0.4c0.3-0.1,0.5-0.2,0.8-0.3c0.2-0.1,0.4-0.2,0.6-0.2c0.2-0.1,0.4-0.2,0.6-0.3
	l0.7-0.3c0.1,0,0.3-0.1,0.4-0.2c0.2-0.1,0.3-0.2,0.5-0.2l0.3-0.1c6.8-3.7,11.6-9.3,13.5-15.8c0.4-1.4,0.7-2.9,1-4.2
	c1.5-6.6,2.8-8.3,3.3-8.3c0.4,0,1.2,0.6,2,1.2c0.3,0.2,0.5,0.4,0.8,0.7c0.3,0.2,0.5,0.4,0.8,0.6c0.2,0.2,0.5,0.3,0.7,0.5
	c0.6,0.5,1.2,0.8,1.9,1.2c0.2,0.1,0.5,0.3,0.7,0.4c4.8,2.7,10,4.1,16.3,4.3c8.1,0.2,16.2-1.5,24.4-3.5c1-0.2,1.9-0.5,3-0.7
	c3.7-0.9,7.6-1.9,11.1-2.5c3.2-0.4,5.5-0.7,7.7-0.7c1.7,0,3.3,0,5.1,0.1c4,0.2,8.9,0.4,13.7-0.8c0.4-0.1,0.8-0.2,1.2-0.4l0.7-0.3
	c3.2-1.1,6-2.6,8.6-4c0.4-0.2,0.9-0.5,1.4-0.7c0.5-0.3,1-0.5,1.4-0.8c1.5-0.8,3.1-1.5,4.8-2.1c0.2-0.1,0.5-0.2,0.7-0.3
	c0.3-0.1,0.6-0.2,0.8-0.3l0.5-0.2c0.4-0.1,0.7-0.2,1.1-0.4c0.6-0.2,1.2-0.4,1.8-0.5c0.3-0.1,0.6-0.2,0.8-0.2l1.7-0.4
	c0.8-0.2,1.6-0.4,2.4-0.5c0.2,0,0.4-0.1,0.5-0.1c0.2,0,0.4-0.1,0.6-0.1l3.9-0.5h3c0.2,0,0.5,0,0.7,0c0.5,0,1,0,1.5,0
	c0.2,0,0.4,0,0.6,0c0.2,0,0.5,0,0.7,0.1l1.7,0.1c0.7,0,1.5,0.1,2.1,0.2c0.3,0.1,0.5,0.1,0.7,0.1c0.2,0,0.4,0,0.7,0.1l1.6,0.3l0.2,0
	c0.6,0.1,1.3,0.2,1.9,0.4c0.5,0.1,1,0.2,1.5,0.4l1.3,0.4c2.2,6.9,4,13.7,5.5,20.4c1.6,6.9,2.9,14.4,3.9,22.3l-2.7-0.4
	c-5.7-0.8-11.7-1.6-17.6-1.5c-2.4,0-4.8,0.2-7,0.5c-5.1,0.6-10.7,1.7-17.4,3.6l-3.3,0.9c-7.1,1.9-13.6,3.6-20,4.3
	c-6,0.6-12.3,0.5-18.3,0.3c-5.3-0.2-11.4-0.3-17.5,0.2l-0.7,0.1c-0.4,0-0.8,0.1-1.2,0.1c-0.4,0-0.9,0.1-1.3,0.1
	c-5.7,0.7-16.5,3-25.2,10.1c-4.9,4-8.2,8.8-10,14.4c-2,6.5-1.5,13.1-1.1,18.9l0,0.3c1.9,25.6,6.6,51,27.6,62.7
	c3.7,2.1,7.6,3.5,11.5,4.8c5.8,2.1,10.8,3.8,14.2,7.6c5.1,5.4,5.5,13.7,6,22.5l0,0.3c0.3,4.5,0.6,9.2,1.5,13.9
	c0.3,1.6,0.8,3.5,1.4,5.2c0.1,0.2,0.1,0.4,0.2,0.7c0.1,0.2,0.1,0.4,0.2,0.6l0.3,0.9c0.2,0.5,0.4,1,0.5,1.5c0.2,0.5,0.4,1,0.6,1.5
	c0.2,0.5,0.4,0.9,0.7,1.4l1.8,3.6c0.3,0.5,0.6,1,0.9,1.4l0.7,1.2c0.4,0.7,0.9,1.4,1.4,2.1c0.3,0.5,0.7,1.1,1.1,1.5l0.9,1.2
	c0.5,0.7,1,1.3,1.6,2c0.2,0.3,0.4,0.5,0.7,0.8c0.2,0.2,0.4,0.5,0.7,0.8l0.9,1c0.6,0.7,1.2,1.4,1.9,2l1.5,1.5l1.1,1
	c0.3,0.3,0.7,0.6,1,0.9c0.3,0.3,0.7,0.7,1,0.9c0.4,0.4,0.8,0.7,1.2,1c0.1,0.1,0.1,0.1,0.2,0.2c-0.1,0.2-0.4,0.4-0.5,0.6l-0.3,0.3
	c-4.4,5-9.3,10.1-15,15.5l-70.7-112.2L264.3,520.8z M302.1,114.4c-0.1,0.1-0.2,0.3-0.3,0.4c-0.1,0.1-0.2,0.2-0.3,0.3l-1.2,1.2
	c-0.2,0.2-0.3,0.3-0.5,0.4l-0.1,0.1c-0.3,0.3-0.7,0.6-1,0.8l-0.4,0.3c-0.1,0.1-0.3,0.2-0.5,0.4l-0.4,0.3c-0.2,0.2-0.5,0.3-0.8,0.6
	l-0.4,0.2l-0.1,0.1c0,0-0.1,0.1-0.1,0.1c-0.1,0.1-0.2,0.1-0.2,0.2c-0.2,0.2-0.5,0.3-0.7,0.4c-0.2,0.1-0.4,0.2-0.6,0.3l-0.7,0.4
	c-0.6,0.3-1.2,0.6-2.1,1c-2.4,0.9-5.2,1.8-7.5,2.5l-2.2,0.6c-5.9,1.8-12.1,4-16.5,9.5c-0.9,1.1-1.7,2.3-2.7,4l-0.2,0.4
	c-0.4,0.8-0.8,1.6-1.2,2.4c-0.3,0.6-0.5,1.1-0.8,1.7l-0.4,0.9c-2.1,4.7-4.7,9.4-7.7,14c-0.9,1.5-1.9,2.9-2.9,4.3
	c-0.3,0.4-0.5,0.7-0.7,1c-0.2,0.3-0.5,0.6-0.7,1c-0.4,0.6-0.8,1.2-1.2,1.6c-0.4,0.4-1,0.6-1.7,0.3c-0.1,0-0.2-0.1-0.2-0.1
	c-1.7-0.9-3.1-2.5-4.3-5c-0.9-2-1.4-4.2-1.8-6.1c-0.5-3.8-0.4-7.8-0.3-11.7l0-1.5c0.1-3.3,0.2-7.1,0-10.7c-0.1-1.8-0.3-3.6-0.6-5.6
	c-0.1-0.4-0.2-0.7-0.2-1.1l-0.2-0.9c-0.2-1.1-0.4-2.2-0.7-3.3c-0.1-0.3-0.1-0.5-0.2-0.8c-0.1-0.2-0.1-0.5-0.2-0.8l-0.3-1
	c-0.1-0.4-0.2-0.8-0.3-1.2c-0.1-0.5-0.3-1-0.5-1.5c-0.1-0.2-0.2-0.5-0.3-0.8c-0.1-0.3-0.2-0.6-0.3-0.8l-0.3-0.8
	c-0.3-0.8-0.6-1.6-0.9-2.5c-0.1-0.3-0.2-0.6-0.4-0.9c-0.1-0.3-0.2-0.5-0.4-0.9l-0.3-0.6c-0.2-0.4-0.4-0.8-0.5-1.2
	c-0.2-0.4-0.4-0.8-0.6-1.2c-0.2-0.4-0.3-0.7-0.5-1.1c-0.2-0.3-0.3-0.7-0.5-1l-1.2-2.4c-0.1-0.2-0.2-0.4-0.3-0.5
	c25.7,1.2,50.5,5.8,73.6,13.7C302.4,114.1,302.3,114.3,302.1,114.4z M378.8,208.4c-0.1-1-0.2-2.1-0.3-3.3c2.5-1.1,4.5-2.5,6-4.2
	c0.4-0.5,0.8-1,1.1-1.5c0.8-1.1,1.3-2.4,1.8-3.6c2.3-6.7-0.6-12.5-3.2-17.7l-0.5-1.1c-1.8-3.7-3.4-6.8-2.7-9.3
	c0.4-1.5,2.1-3.3,5-5.4c32.3,27.9,57.1,63.6,71.8,103.4c-1.2-0.2-2.5-0.3-3.9-0.5l-0.7-0.1c-1.7-0.1-3.4-0.2-5.2-0.2h-0.9
	c-1.7,0-3.5,0.1-5.2,0.2l-0.9,0.1c-1.8,0.2-3.5,0.4-5.2,0.7l-0.8,0.2c-0.5,0.1-0.9,0.2-1.4,0.3c-1.3,0.3-2.5,0.5-3.8,0.9l-0.6,0.2
	c-1.8,0.5-3.5,1.1-5.2,1.7l-0.3,0.1c-2,0.7-3.8,1.6-5.3,2.3c-0.5,0.2-1,0.5-1.5,0.8c-0.5,0.3-1.1,0.6-1.8,0.9
	c-1.4,0.8-3.1,1.7-5,2.6c-1.2,0.5-2,0.8-2.8,1c-2.4,0.6-5,0.7-6.8,0.6c-0.6,0-1.2,0-1.8,0c-0.6,0-1.3-0.1-1.9-0.1l-0.3,0
	c-1.8-0.1-3.6-0.2-5.3-0.1c-7.7,0.1-15.6,1.9-23.1,3.7l-0.9,0.2c-7.7,1.8-14.9,3.4-21.5,3.3c-5.2-0.1-9.4-1.3-13.1-3.9l-1.2-0.9
	c-2.7-2.1-5.7-4-9.6-4.2c-0.2,0-0.4,0-0.5,0c-10,0-12.6,11.3-14.1,17.4l-0.3,1.3c-0.2,0.8-0.4,1.6-0.6,2.3c-0.1,0.3-0.2,0.6-0.3,0.8
	c-0.1,0.3-0.2,0.6-0.3,0.8c-0.8,1.7-1.9,3.2-3.2,4.6c-0.3,0.3-0.5,0.5-0.9,0.8l-0.3,0.3c-0.9,0.7-1.8,1.3-2.8,1.9
	c-3.9,2.1-8.2,2.8-12.1,2c-0.6-0.1-1.1-0.2-1.6-0.4c-8.5-2.6-14.5-12.1-14.1-22.2c0.1-3.9,1.3-8,3.4-11.9c2.7-5,6.7-8.9,11.7-11.8
	c0.6-0.4,1.3-0.7,1.9-1c3.9-2,8.5-3.3,12.9-4.5c7.9,4.8,17.1,7.3,26.4,7.3c0.6,0,1.1,0,1.7-0.1c0.5,0,1.1,0,1.7-0.1
	c13.7-0.9,26.3-7.1,35.3-17.4C375.2,235.4,379.7,222.1,378.8,208.4z M365.6,197.2L365.6,197.2l-0.4,0.3c1.2,3.2,2,6.5,2.4,9.8
	l0.5-0.1l0,0l-0.5,0.2c0.1,0.6,0.1,1.2,0.2,1.8c0.7,10.7-2.9,21-10,29.1c-7.1,8-17,12.8-27.7,13.5c-4.2,0.3-8.3-0.1-12.4-1.1l0,0
	c-5.1-1.3-9.9-3.6-14.3-6.9c-1-0.7-1.7-1.3-2.4-2c-8-7.1-12.8-17-13.5-27.7c-0.7-10.7,2.9-21,10-29.1c7.1-8,17-12.8,27.7-13.5
	c0.9-0.1,1.6-0.1,2.5-0.1c9.8,0,19,3.5,26.6,10.1c4.9,4.3,8.7,9.8,11,15.8L365.6,197.2L365.6,197.2z M410.3,502
	c-0.5-0.6-1-1.2-1.4-1.8l-0.9-1.1c-0.1-0.1-0.2-0.3-0.3-0.4c-0.1-0.2-0.3-0.4-0.4-0.5l-2.6-3.9c-0.2-0.3-0.4-0.7-0.5-1
	c-0.2-0.4-0.4-0.7-0.5-1l-0.6-1.1c-0.1-0.2-0.2-0.4-0.2-0.5c-0.1-0.1-0.1-0.2-0.2-0.4c-0.3-0.6-0.5-1.3-0.8-1.9l-0.3-0.9
	c0-0.1-0.1-0.2-0.1-0.3c-0.1-0.1-0.1-0.3-0.2-0.4c0-0.1,0-0.1-0.1-0.2c0-0.1-0.1-0.2-0.1-0.3c-0.4-1.3-0.8-2.7-1.1-4
	c-0.8-3.9-1.1-8.4-1.3-12.6l0-0.3c-0.6-9.8-1.3-20.9-9-29.2c-5.5-5.8-13-8.5-18.6-10.4c-3.1-1.1-6.8-2.4-9.8-4.1
	c-16.3-9.2-20.2-31.3-21.8-53.8c-0.4-5.1-0.8-10.5,0.7-15c0.6-1.8,1.4-3.5,2.6-5.1c5.3-7.3,15.8-10.9,23.3-11.7
	c1.5-0.2,3.2-0.3,4.9-0.4h1.6c0.6,0,1.2,0,1.8-0.1c0.6,0,1.1,0,1.7,0h1.4c1.2,0,2.5,0,3.7,0c1.3,0,2.5,0,3.8,0l0.7,0
	c5.5,0.2,11.4,0.3,17.4-0.2h0.6c0.4,0,0.8,0,1.2-0.1c7.2-0.8,14-2.5,21.6-4.6c4-1.1,9.3-2.4,14.6-3.5c1.2-0.3,2.5-0.4,3.8-0.6
	l0.5-0.1c2.2-0.3,4.1-0.4,6-0.5l0.1,0c5.2-0.1,10.9,0.7,16.9,1.5l0.2,0c0.8,0.1,1.6,0.2,2.3,0.3l1.9,0.2c0.6,7.1,0.9,14.3,0.9,21.3
	c0.3,2.1,0.3,4.4,0.2,7.4c-1.2,41.6-12.1,80.9-32.5,116.7l0,0c-6.4,11.4-13.9,22.5-22.2,32.9c-0.1-0.1-0.2-0.1-0.3-0.2
	c-0.2-0.2-0.4-0.3-0.6-0.5c-0.3-0.3-0.6-0.6-0.9-0.8c-0.3-0.3-0.7-0.6-1-0.9l-1.1-1c-0.2-0.2-0.4-0.4-0.6-0.6
	c-0.2-0.2-0.4-0.3-0.6-0.5c-0.6-0.6-1.1-1.1-1.6-1.7l-1-1.1c-0.2-0.2-0.4-0.4-0.5-0.6C410.6,502.4,410.4,502.2,410.3,502z
	 M29.7,518.5l109.5-168.9l118.7,181.7l-46.7,74.7C141.5,603.3,75.3,571.4,29.7,518.5z"/>
</svg>
