<!-- Based on: http://freedesignfile.com/370385-earth-icon-vector/ -->

<svg xmlns="http://www.w3.org/2000/svg" viewBox="0 0 90 90">
  <defs>
    <style>.cls-1{fill:#073349;}.cls-2{fill:#2cb4ff;}.cls-3{fill:#2892c7;}.cls-4{fill:#0bad86;}.cls-5{fill:#ffffff;}</style>
  </defs>
  <title>earth</title>
  <g id="earth">
    <g id="earth-2" data-name="earth">
      <!-- <circle id="back" class="cls-1" cx="45" cy="45" r="42.5"/> -->
      <rect id="back" class="cls-1" width="90" height="90" rx="10" />
      <g id="earth-3" data-name="earth">
        <circle class="cls-2" cx="45" cy="45" r="23.61"/>
        <path class="cls-3" d="M45,21.39c-.69,0-1.36,0-2,.09a23.61,23.61,0,0,1,0,47c.67.06,1.35.09,2,.09a23.61,23.61,0,0,0,0-47.23Z"/>
        <path class="cls-4"
          d="M47.12,32.19c-.71.06-3-3.44-3.36-3.87s-1.46-.6-1.89-.81c-.93-.43-3.4-.91-2.64-2.4a8.63,8.63,0,0,1,2.43-1.88l.63-.62a22.48,22.48,0,0,0-15.76,9.13,5.49,5.49,0,0,0-.25.9,4.68,4.68,0,0,0,1.24,4.08c.33.31.79.42,1.07.77a2.64,2.64,0,0,0,1.26,1c.81.27,1,.77,1.55,1.46a7.23,7.23,0,0,1,1.29,1.87c.36,1,2.94,1,3.83,1.43,1.24.65,6.07,3.95,7.46,3.76,0,0,1.73,0,1.37,1.27-.17.59-.7.95-.92,1.53a6,6,0,0,0-.13,1.47c-.06.52-.47,0-.06.88a8,8,0,0,0,.7,1.15,8.73,8.73,0,0,0,1.45,2c.44.43,1.42.93,1.65,1.55A6.24,6.24,0,0,1,48,59.2c-.22,1.24-.18,2.72-.52,3.86s-.69,1.45-.42,2.67A4.51,4.51,0,0,1,47,67.13a1.61,1.61,0,0,1-.14.26,22.66,22.66,0,0,0,2.81-.45l0,0c.14-.38.8-1.92,1.13-2-.16-1.34,1.87-.21,2.08-1.59-.23-.12-.19-.06-.22-.26,0,.25,1-.1,1.07.07s1.25-1.54,1.38-1.68A4.09,4.09,0,0,0,56,60.33c.68-1.31.62-1.08,1.89-1.71-.18.09,1.32-1.21,1.41-1.71a11.4,11.4,0,0,1,.16-1.77c.25-.72.84-.94,1.23-1.56s.59-1.22.18-1.68c-.72-.82-2.95-1-3.48-1.19-1.47-.52-1.85-.63-2-1.41-.19-1.73-2.34-1.55-2.89-2a7.57,7.57,0,0,0-5.84-1.38c-1,.32-.49,1.12-1.45.65-1.65-.79-2.63-1.38-3.23-2.44-.21-.39-.67-.14-.57-.57s1.27-1.71.08-1.68c-.92,0-2,.53-2.07-.31-.12-1.21-.2-1.86.92-2.57.91-.58,2.22-1.12,3,.09.23.35.79,1.72,1.07.84A8.36,8.36,0,0,0,44.11,38v0c0-.06,0-.11,0-.16l0,.15a4.41,4.41,0,0,1,1-1c.32-.23.74-.48.83-.78s-.24-.5-.08-.79a12.68,12.68,0,0,1,1.8-2.1"/>

        </g>
        <g id="stars">
        <path class="cls-5" d="M58,20.12a1,1,0,1,0-1-1,1,1,0,0,0,1,1"/>
        <circle class="cls-5" cx="16.94" cy="31.07" r="1"/>
        <circle class="cls-5" cx="19.93" cy="70.87" r="1"/>
        <circle class="cls-5" cx="73.06" cy="57.81" r="1"/>
      </g>
      <g id="new-stars">

        <path d="
          M23,14
          A5,5 0 0,0 28,19
          A5,5 0 0,0 23,24
          A5,5 0 0,0 18,19
          A5,5 0 0,0 23,14" fill="white"/>

        <path d="
          M70,20
          A5,5 0 0,0 75,25
          A5,5 0 0,0 70,30
          A5,5 0 0,0 65,25
          A5,5 0 0,0 70,20" fill="white"/>
      </g>
    </g>
  </g>
</svg>
